<svg width="12" height="15" viewBox="0 0 12 15" fill="none" xmlns="http://www.w3.org/2000/svg">
<mask id="mask0_147_95" style="mask-type:alpha" maskUnits="userSpaceOnUse" x="0" y="0" width="12" height="15">
<path d="M0 0H11.164V15H0V0Z" fill="white"/>
</mask>
<g mask="url(#mask0_147_95)">
<path d="M5.582 2C4.63232 2.00106 3.72184 2.37879 3.05031 3.05031C2.37879 3.72184 2.00106 4.63232 2 5.582C2 5.749 2.08 6.707 3.665 9.119C4.2841 10.0483 4.94029 10.9524 5.632 11.829C6.052 11.286 6.522 10.652 6.983 9.979C9.103 6.887 9.163 5.706 9.163 5.582C9.16194 4.63267 8.78449 3.72249 8.11339 3.05102C7.4423 2.37955 6.53233 2.00159 5.583 2H5.582ZM5.582 0C8.665 0 11.164 2.5 11.164 5.582C11.164 8.63 5.676 15 5.583 15L5.582 14.998C5.612 14.853 0 8.665 0 5.582C0 2.499 2.5 0 5.582 0Z" fill="#F88500"/>
</g>
</svg>
