<svg width="69" height="31" viewBox="0 0 69 31" fill="none" xmlns="http://www.w3.org/2000/svg">
<g clip-path="url(#clip0_117_1147)">
<path d="M26.993 30.9213C25.1393 30.4505 23.8309 28.7824 23.8067 26.859C23.7942 25.8602 23.9796 25.2019 24.4878 24.4407C25.9641 22.2296 29.1013 21.9195 30.9684 23.8001C31.8513 24.6894 32.1009 25.3492 32.1025 26.7974C32.1036 27.9083 32.0703 28.0933 31.7632 28.6803C31.053 30.0376 29.7476 30.9007 28.2707 30.9893C27.8214 31.0162 27.2464 30.9858 26.993 30.9213ZM28.7244 27.89C29.3655 27.438 29.4715 26.3929 28.9283 25.8791C27.982 24.9842 26.5512 25.6546 26.7055 26.9206C26.8227 27.8822 27.9606 28.4286 28.7244 27.89ZM55.7688 30.8854C54.5016 30.5242 53.3898 29.4762 52.9123 28.193C52.61 27.3804 52.6855 25.7754 53.0625 25.0018C53.508 24.0875 54.1305 23.4558 55.0209 23.0144C55.7524 22.6517 55.9496 22.6088 56.8838 22.6088C57.8175 22.6088 58.0156 22.6519 58.7464 23.0137C60.2496 23.758 61.0712 25.0975 61.0671 26.7974C61.0628 28.5705 60.1504 29.9722 58.531 30.6933C57.8302 31.0054 56.5113 31.0971 55.7688 30.8854ZM57.7701 27.7315C58.1133 27.4228 58.1698 27.2907 58.1698 26.7974C58.1698 26.3041 58.1133 26.172 57.7701 25.8633C57.4709 25.5941 57.2485 25.5039 56.8848 25.5039C56.5212 25.5039 56.2988 25.5941 55.9996 25.8633C55.6564 26.172 55.5999 26.3041 55.5999 26.7974C55.5999 27.2907 55.6564 27.4228 55.9996 27.7315C56.2988 28.0007 56.5212 28.0909 56.8848 28.0909C57.2485 28.0909 57.4709 28.0007 57.7701 27.7315ZM15.3999 23.5963V21.4385H14.9657C13.9887 21.4385 13.5621 20.1897 14.2891 19.4579L14.6468 19.0978H18.5171C22.768 19.0978 22.9385 19.0715 23.2261 18.3726C23.4123 17.92 23.3014 17.3514 22.9675 17.0471C22.7331 16.8334 22.3439 16.8147 16.9195 16.7571L11.1221 16.6955L10.7857 16.3567C10.3162 15.8839 10.3162 15.1664 10.7857 14.6936L11.1222 14.3548L20.9813 14.2932L30.8404 14.2316L31.1356 13.886C31.5261 13.4289 31.5261 12.8168 31.1356 12.3598L30.8403 12.0141L15.7198 11.9525L0.599289 11.8909L0.341931 11.6318C0.200385 11.4893 0.0554304 11.154 0.0198117 10.8866C-0.0338763 10.4837 0.01125 10.3333 0.283671 10.0074L0.61229 9.61426L18.6499 9.58225L36.6875 9.55025L37.024 9.21147C37.4937 8.73866 37.4937 8.02117 37.024 7.54835L36.6875 7.20956L22.3419 7.14797C14.4518 7.11409 7.92175 7.03802 7.83075 6.97893C7.50658 6.76844 7.30015 6.05148 7.44047 5.62346C7.7209 4.76807 7.22763 4.80728 17.7075 4.80728C24.2263 4.80728 27.2263 4.76602 27.4278 4.67359C28.1694 4.33342 28.3115 3.22042 27.6775 2.71832C27.3672 2.47261 27.2166 2.4666 21.3758 2.4666C15.0031 2.4666 14.7361 2.44363 14.4307 1.86916C14.201 1.43696 14.2739 0.784413 14.5938 0.409968L14.8892 0.0643153L30.8696 0.0321576L46.8501 0V10.9656V21.9312H47.5844H48.3186V13.6772V5.42325H53.633H58.9474L59.1956 5.7408C59.414 6.02033 61.4302 8.15174 66.004 12.9381C66.7486 13.7173 67.7266 14.7429 68.1774 15.2172L68.9969 16.0795L68.9985 20.9149L69 25.7502L65.7265 25.7501L62.453 25.75L62.2434 25.0319C61.9495 24.0251 61.1706 22.9091 60.3041 22.2534C58.0139 20.5203 54.9375 20.7369 52.9144 22.7736C52.2087 23.484 51.5673 24.5889 51.4286 25.3328L51.3507 25.7502H42.4446H33.5385L33.4607 25.3327C33.2167 24.023 31.7905 22.2952 30.4115 21.6385C27.2889 20.1514 23.5528 21.8433 22.556 25.1959L22.4095 25.6887L18.9047 25.7213L15.3999 25.754V23.5963ZM62.25 11.8601C60.0095 9.50559 58.1197 7.53842 58.0506 7.48864C57.9816 7.43886 56.3143 7.39728 54.3456 7.39624L50.7661 7.39436V11.7677V16.1411H58.545H66.3238L62.25 11.8601Z" fill="#F88500"/>
</g>
<defs>
<clipPath id="clip0_117_1147">
<rect width="69" height="31" fill="white"/>
</clipPath>
</defs>
</svg>
