<svg width="42" height="42" viewBox="0 0 42 42" fill="none" xmlns="http://www.w3.org/2000/svg">
<g clip-path="url(#clip0_117_1138)">
<path d="M0.214771 41.785L0 41.57V30.438V19.3059L0.214771 19.0909C0.355788 18.9497 0.52844 18.8759 0.717512 18.8759C0.983277 18.8759 1.85711 19.7284 12.0527 29.9347C22.2484 40.141 23.1 41.0157 23.1 41.2817C23.1 41.471 23.0263 41.6438 22.8853 41.785L22.6705 42H11.55H0.429548L0.214771 41.785ZM20.65 40.5765C20.65 40.5644 16.3188 36.2188 11.025 30.9197L1.4 21.285V30.9418V40.5985H11.025C16.3188 40.5985 20.65 40.5886 20.65 40.5765ZM4.41478 37.5806L4.2 37.3656V33.5912V29.8169L4.41478 29.6019C4.55556 29.4609 4.72849 29.3869 4.91675 29.3869C5.17849 29.3869 5.53182 29.7151 8.90198 33.0887C12.2721 36.4624 12.6 36.8161 12.6 37.0781C12.6 37.2666 12.526 37.4397 12.3852 37.5806L12.1705 37.7956H8.40001H4.62955L4.41478 37.5806ZM10.15 36.3716C10.15 36.3592 9.12626 35.3249 7.87501 34.073L5.60001 31.7969V34.0955V36.3942H7.87501C9.12626 36.3942 10.15 36.384 10.15 36.3716ZM21.7 37.0978V36.3942L27.4531 36.3936C31.379 36.3933 33.3174 36.3624 33.5563 36.2964C34.0268 36.1664 34.7726 35.4199 34.9025 34.9489C34.9556 34.7562 34.9993 34.3719 34.9995 34.0949L35.0001 33.5912H26.8148H18.6296L18.4148 33.3762L18.2001 33.1612V30.0876V27.0139L18.4148 26.7989L18.6296 26.5839H26.8148H35.0001V19.3806V12.1772L33.6001 13.5766L32.2001 14.976V19.8643V24.7525L31.9853 24.9675L31.7705 25.1825H23.8H15.8296L15.6148 24.9675C15.4026 24.7551 15.4 24.7333 15.4 23.1719V21.5912H15.1036C14.6588 21.5912 13.3369 21.1851 12.6438 20.8355C10.6261 19.8177 9.19384 18.0012 8.61154 15.7216C8.34895 14.6936 8.38873 12.9506 8.69833 11.9193C9.11946 10.5165 9.71742 9.49237 10.6722 8.53852C11.6881 7.52366 12.9321 6.83295 14.4058 6.46546C15.2984 6.24286 17.0631 6.26654 17.9813 6.51344C20.1424 7.09456 21.966 8.55772 22.9359 10.4887L23.277 11.1679H25.8358H28.3946L31.6973 7.86089L35 4.55389L34.9995 3.85359C34.9992 3.46842 34.9556 2.99562 34.9025 2.80292C34.7726 2.33187 34.0268 1.58537 33.5563 1.45535C33.0616 1.31867 8.93842 1.31867 8.44376 1.45535C7.9732 1.58537 7.22748 2.33187 7.09759 2.80292C7.02994 3.04825 7.00083 5.93009 7.00049 12.4161L6.99997 21.6788H6.29808H5.5962L5.61996 12.1487L5.64372 2.61854C6.15443 0.937143 7.04239 0.295542 8.26872 0H21H33.7312L34.3211 0.27969C35.3455 0.765463 36.1591 1.79284 36.2894 2.76504C36.3148 2.95449 36.3555 3.10949 36.3799 3.10949C36.4043 3.10949 36.7373 2.8101 37.12 2.44417C38.0168 1.58648 38.4108 1.40166 39.3312 1.40694C40.1482 1.41162 40.6892 1.63937 41.2251 2.20411C41.7664 2.77456 41.9466 3.22764 41.951 4.0292C41.9573 5.18284 41.9215 5.23288 38.9776 8.19055L36.4 10.7801V18.682V26.5839H38.9852H41.5705L41.7852 26.7989L42 27.0139V30.0876V33.1612L41.7852 33.3762L41.5705 33.5912H38.9974H36.4243L36.3791 34.3849C36.3401 35.0682 36.29 35.2674 36.0183 35.8177C35.6365 36.5909 35.1208 37.0928 34.3157 37.4746L33.7312 37.7518L27.7156 37.7766L21.7 37.8014L21.7 37.0978ZM40.6 30.0876V27.9854H39.9H39.2V28.6861V29.3869H38.5H37.8V28.6861V27.9854H37.1H36.4V28.6861V29.3869H35.7H35V28.6861V27.9854H34.3H33.6V28.6861V29.3869H32.9H32.2V28.6861V27.9854H31.5H30.8V28.6861V29.3869H30.1H29.4V28.6861V27.9854H28.7H28V28.6861V29.3869H27.3H26.6V28.6861V27.9854H25.9H25.2V28.6861V29.3869H24.5H23.8V28.6861V27.9854H23.1H22.4V28.6861V29.3869H21.7H21V28.6861V27.9854H20.3H19.6V30.0876V32.1898H30.1H40.6V30.0876ZM30.8 20.0819V16.3828L29.9347 17.2458L29.0694 18.1088L27.1247 18.4993C26.0552 18.7141 25.0866 18.8664 24.9724 18.8377C24.8582 18.809 24.6977 18.6831 24.6157 18.5579C24.4726 18.3392 24.4818 18.2524 24.8515 16.3476L25.2363 14.365L26.1098 13.4672L26.9833 12.5693H25.3463H23.7094L23.7649 13.5109C23.985 17.2482 21.5849 20.4938 17.8883 21.4576C17.6064 21.5311 17.2462 21.5912 17.0879 21.5912H16.8V22.6861V23.781H23.8H30.8V20.0819ZM15.6503 11.3353C15.8445 11.1779 16.0327 11.1679 18.7878 11.1679C21.3742 11.1679 21.7127 11.1522 21.6677 11.0348C21.5329 10.6831 20.8738 9.8378 20.3569 9.35383C19.682 8.72185 18.8854 8.25428 17.9521 7.94231C17.3645 7.74591 17.1347 7.71811 16.1 7.71828C15.051 7.71846 14.8404 7.74479 14.2188 7.95354C12.4804 8.53729 11.2425 9.6071 10.4487 11.2117C9.56362 13.0006 9.57252 14.8888 10.4749 16.7709C10.8161 17.4827 10.9856 17.7128 11.6706 18.3942C12.687 19.4051 13.7112 19.9572 14.9691 20.1723L15.3563 20.2385L15.4 15.8706L15.4438 11.5027L15.6503 11.3353ZM18.2569 19.8879C19.1255 19.5722 19.7612 19.1525 20.519 18.3942C21.3181 17.5946 21.7779 16.8613 22.1118 15.854C22.3133 15.2461 22.3449 15.0025 22.3502 14.0146C22.3535 13.3883 22.328 12.8069 22.2934 12.7226C22.2354 12.5813 22.0189 12.5693 19.5153 12.5693H16.8V16.4114V20.2535L17.2514 20.1713C17.4997 20.1262 17.9522 19.9986 18.2569 19.8879ZM26.7212 17.1648C26.9445 17.1313 27.1446 17.0756 27.1659 17.0411C27.1872 17.0066 27.0142 16.7906 26.7814 16.5611C26.5487 16.3316 26.3391 16.1771 26.3156 16.2179C26.2922 16.2586 26.246 16.4496 26.2131 16.6423C26.1802 16.835 26.1311 17.0676 26.104 17.1592C26.0679 17.2814 26.0895 17.3124 26.185 17.2758C26.2566 17.2483 26.4979 17.1983 26.7212 17.1648ZM33.8187 11.3432L38.893 6.26302L37.9963 5.3654L37.0996 4.46778L32.0038 9.56888L26.908 14.67L27.7805 15.5467C28.2604 16.0288 28.6735 16.4234 28.6987 16.4234C28.7238 16.4234 31.0278 14.1373 33.8187 11.3432ZM40.2397 4.9035C40.7351 4.33869 40.7277 3.6344 40.2211 3.12725C39.6893 2.59492 38.8839 2.64085 38.3292 3.23513L38.1147 3.46501L38.9838 4.33834C39.4619 4.81868 39.8792 5.21168 39.9112 5.21168C39.9432 5.21168 40.091 5.073 40.2397 4.9035ZM8.40001 3.45985V2.75912H9.10001H9.80001V3.45985V4.16058H9.10001H8.40001V3.45985ZM11.2 3.45985V2.75912H11.9H12.6V3.45985V4.16058H11.9H11.2V3.45985ZM14 3.45985V2.75912H14.7H15.4V3.45985V4.16058H14.7H14V3.45985Z" fill="#F88500"/>
</g>
<defs>
<clipPath id="clip0_117_1138">
<rect width="42" height="42" fill="white"/>
</clipPath>
</defs>
</svg>
