<svg width="61" height="49" viewBox="0 0 61 49" fill="none" xmlns="http://www.w3.org/2000/svg">
<path d="M47.7303 34.1917C46.1397 34.516 44.1936 34.5102 42.4349 34.1761L41.8531 34.0656L42.7693 32.5541C44.4296 29.8151 45.4841 27.7488 46.6027 25.0426C47.7085 22.3673 48.4515 19.9805 48.9856 17.3881C49.2799 15.9598 49.6409 13.6317 49.5632 13.6631C49.5448 13.6705 49.4089 14.1859 49.2611 14.8085C47.7003 21.383 44.4002 28.1702 40.6984 32.4194C40.2855 32.8932 39.9205 33.261 39.8873 33.2366C39.5302 32.9745 38.2282 31.2885 37.5799 30.2487C36.9168 29.1854 36.1517 27.3476 35.9671 26.3747C35.6124 24.506 35.8163 22.9907 36.6491 21.3048C37.6544 19.2698 39.2694 17.4516 42.177 15.0817C45.5896 12.3001 46.6207 11.2988 47.7112 9.70722C48.4843 8.57883 49.1324 7.03356 49.3754 5.73932C49.4496 5.34445 49.529 5.01253 49.552 5.00168C49.624 4.96775 50.4397 6.2393 50.9205 7.13492C51.6331 8.46242 52.232 9.83605 52.7243 11.2725C55.5919 19.6382 55.4193 27.5779 52.2867 31.4159C51.7279 32.1005 51.0615 32.7016 50.4174 33.1024C49.7492 33.5183 48.4502 34.0448 47.7309 34.1915L47.7303 34.1917ZM30.5236 41.02C27.4668 41.9474 24.6014 41.9295 21.8272 40.9651C18.8341 39.925 15.7056 37.4341 13.7094 34.5015C12.8225 33.1986 12.2823 32.16 10.9859 29.2652C10.3139 27.7648 9.62202 26.3129 9.38803 25.9122C7.54536 22.757 5.20509 21.2156 0.935277 20.3455L0.297219 20.2154L0.646407 19.9285C1.18113 19.4891 2.37014 18.706 3.13078 18.2921C4.28511 17.664 7.24057 16.5742 8.79671 16.2028C14.48 14.8462 20.917 14.8531 26.475 16.2217C29.6199 16.9961 32.656 18.3275 34.6911 19.8246L35.1991 20.1984L34.6953 21.3806C34.1449 22.6721 33.9717 23.3324 33.9167 24.3499C33.7963 26.5752 34.7653 29.0022 36.6922 31.3014C36.9812 31.6462 37.2118 31.942 37.2048 31.9586C37.1977 31.9753 37.0103 31.8359 36.7885 31.6488C32.3298 27.8901 27.6507 25.2999 22.6259 23.8089C21.3444 23.4287 18.5952 22.8037 18.4545 22.8606C18.4356 22.8682 19.1023 23.1686 19.9361 23.528C23.9695 25.2667 27.3623 27.1953 30.3967 29.4736C31.4932 30.2969 33.4223 32.0098 34.28 32.9214C35.4926 34.2102 36.7194 35.8709 37.1086 36.7503L37.3027 37.1889L36.7603 37.6344C35.1041 38.9946 32.4504 40.435 30.524 41.0195L30.5236 41.02ZM37.353 32.1564C37.3116 32.1261 37.2866 32.0804 37.2973 32.055C37.3081 32.0296 37.3547 32.0494 37.4008 32.0988C37.4966 32.2016 37.4655 32.239 37.353 32.1564Z" fill="#F88500"/>
</svg>
