<svg width="16" height="19" viewBox="0 0 16 19" fill="none" xmlns="http://www.w3.org/2000/svg">
<g clip-path="url(#clip0_172_957)">
<path d="M8.00332 5.42716C5.73189 5.42716 3.89975 7.24404 3.89975 9.49654C3.89975 11.749 5.73189 13.5659 8.00332 13.5659C10.2747 13.5659 12.1069 11.749 12.1069 9.49654C12.1069 7.24404 10.2747 5.42716 8.00332 5.42716ZM8.00332 12.1422C6.53546 12.1422 5.33546 10.9557 5.33546 9.49654C5.33546 8.03737 6.53189 6.85091 8.00332 6.85091C9.47475 6.85091 10.6712 8.03737 10.6712 9.49654C10.6712 10.9557 9.47118 12.1422 8.00332 12.1422ZM13.2319 5.2607C13.2319 5.78841 12.8033 6.20987 12.2747 6.20987C11.7426 6.20987 11.3176 5.78487 11.3176 5.2607C11.3176 4.73654 11.7462 4.31154 12.2747 4.31154C12.8033 4.31154 13.2319 4.73654 13.2319 5.2607ZM15.9497 6.22404C15.889 4.95258 15.5962 3.82633 14.6569 2.89841C13.7212 1.97049 12.5855 1.68008 11.3033 1.61633C9.98189 1.54195 6.02118 1.54195 4.69975 1.61633C3.42118 1.67654 2.28546 1.96695 1.34618 2.89487C0.406892 3.82279 0.117606 4.94904 0.0533203 6.2205C-0.0216797 7.53091 -0.0216797 11.4586 0.0533203 12.769C0.114035 14.0405 0.406892 15.1667 1.34618 16.0947C2.28546 17.0226 3.41761 17.313 4.69975 17.3767C6.02118 17.4511 9.98189 17.4511 11.3033 17.3767C12.5855 17.3165 13.7212 17.0261 14.6569 16.0947C15.5926 15.1667 15.8855 14.0405 15.9497 12.769C16.0247 11.4586 16.0247 7.53445 15.9497 6.22404ZM14.2426 14.1751C13.964 14.8692 13.4247 15.404 12.7212 15.6838C11.6676 16.0982 9.1676 16.0026 8.00332 16.0026C6.83903 16.0026 4.33546 16.0947 3.28546 15.6838C2.58546 15.4076 2.04618 14.8728 1.76403 14.1751C1.34618 13.1303 1.44261 10.6511 1.44261 9.49654C1.44261 8.34195 1.34975 5.85925 1.76403 4.818C2.04261 4.12383 2.58189 3.58904 3.28546 3.30924C4.33903 2.89487 6.83903 2.99049 8.00332 2.99049C9.1676 2.99049 11.6712 2.89841 12.7212 3.30924C13.4212 3.58549 13.9605 4.12029 14.2426 4.818C14.6605 5.86279 14.564 8.34195 14.564 9.49654C14.564 10.6511 14.6605 13.1338 14.2426 14.1751Z" fill="#6F7A8B" fill-opacity="0.75"/>
</g>
<defs>
<clipPath id="clip0_172_957">
<rect width="16" height="18.1333" fill="white" transform="translate(0 0.43335)"/>
</clipPath>
</defs>
</svg>
