<svg width="16" height="19" viewBox="0 0 16 19" fill="none" xmlns="http://www.w3.org/2000/svg">
<g clip-path="url(#clip0_130_285)">
<path d="M8.00332 4.99369C5.73189 4.99369 3.89975 6.81057 3.89975 9.06307C3.89975 11.3156 5.73189 13.1324 8.00332 13.1324C10.2747 13.1324 12.1069 11.3156 12.1069 9.06307C12.1069 6.81057 10.2747 4.99369 8.00332 4.99369ZM8.00332 11.7087C6.53546 11.7087 5.33546 10.5222 5.33546 9.06307C5.33546 7.6039 6.53189 6.41744 8.00332 6.41744C9.47475 6.41744 10.6712 7.6039 10.6712 9.06307C10.6712 10.5222 9.47118 11.7087 8.00332 11.7087ZM13.2319 4.82723C13.2319 5.35494 12.8033 5.7764 12.2747 5.7764C11.7426 5.7764 11.3176 5.3514 11.3176 4.82723C11.3176 4.30307 11.7462 3.87806 12.2747 3.87806C12.8033 3.87806 13.2319 4.30307 13.2319 4.82723ZM15.9497 5.79057C15.889 4.51911 15.5962 3.39286 14.6569 2.46494C13.7212 1.53702 12.5855 1.24661 11.3033 1.18286C9.98189 1.10848 6.02118 1.10848 4.69975 1.18286C3.42118 1.24306 2.28546 1.53348 1.34618 2.4614C0.406892 3.38931 0.117606 4.51556 0.0533203 5.78702C-0.0216797 7.09744 -0.0216797 11.0251 0.0533203 12.3356C0.114035 13.607 0.406892 14.7333 1.34618 15.6612C2.28546 16.5891 3.41761 16.8795 4.69975 16.9433C6.02118 17.0176 9.98189 17.0176 11.3033 16.9433C12.5855 16.8831 13.7212 16.5926 14.6569 15.6612C15.5926 14.7333 15.8855 13.607 15.9497 12.3356C16.0247 11.0251 16.0247 7.10098 15.9497 5.79057ZM14.2426 13.7416C13.964 14.4358 13.4247 14.9706 12.7212 15.2504C11.6676 15.6647 9.16761 15.5691 8.00332 15.5691C6.83903 15.5691 4.33546 15.6612 3.28546 15.2504C2.58546 14.9741 2.04618 14.4393 1.76403 13.7416C1.34618 12.6968 1.44261 10.2176 1.44261 9.06307C1.44261 7.90848 1.34975 5.42577 1.76403 4.38452C2.04261 3.69036 2.58189 3.15556 3.28546 2.87577C4.33903 2.4614 6.83903 2.55702 8.00332 2.55702C9.16761 2.55702 11.6712 2.46494 12.7212 2.87577C13.4212 3.15202 13.9605 3.68682 14.2426 4.38452C14.6605 5.42932 14.564 7.90848 14.564 9.06307C14.564 10.2176 14.6605 12.7004 14.2426 13.7416Z" fill="white" fill-opacity="0.75"/>
</g>
<defs>
<clipPath id="clip0_130_285">
<rect width="16" height="18.1333" fill="white"/>
</clipPath>
</defs>
</svg>
