<svg width="17" height="17" viewBox="0 0 17 17" fill="none" xmlns="http://www.w3.org/2000/svg">
<path d="M8.50137 4.43058C6.22994 4.43058 4.3978 6.24746 4.3978 8.49996C4.3978 10.7525 6.22994 12.5693 8.50137 12.5693C10.7728 12.5693 12.6049 10.7525 12.6049 8.49996C12.6049 6.24746 10.7728 4.43058 8.50137 4.43058ZM8.50137 11.1456C7.03351 11.1456 5.83351 9.95912 5.83351 8.49996C5.83351 7.04079 7.02994 5.85433 8.50137 5.85433C9.9728 5.85433 11.1692 7.04079 11.1692 8.49996C11.1692 9.95912 9.96922 11.1456 8.50137 11.1456ZM13.7299 4.26412C13.7299 4.79183 13.3014 5.21329 12.7728 5.21329C12.2407 5.21329 11.8157 4.78829 11.8157 4.26412C11.8157 3.73995 12.2442 3.31495 12.7728 3.31495C13.3014 3.31495 13.7299 3.73995 13.7299 4.26412ZM16.4478 5.22746C16.3871 3.956 16.0942 2.82975 15.1549 1.90183C14.2192 0.973913 13.0835 0.683496 11.8014 0.619746C10.4799 0.545371 6.51922 0.545371 5.1978 0.619746C3.91922 0.679954 2.78351 0.970371 1.84422 1.89829C0.904939 2.8262 0.615653 3.95245 0.551367 5.22391C0.476367 6.53433 0.476367 10.462 0.551367 11.7725C0.612081 13.0439 0.904939 14.1702 1.84422 15.0981C2.78351 16.026 3.91565 16.3164 5.1978 16.3802C6.51922 16.4545 10.4799 16.4545 11.8014 16.3802C13.0835 16.32 14.2192 16.0295 15.1549 15.0981C16.0907 14.1702 16.3835 13.0439 16.4478 11.7725C16.5228 10.462 16.5228 6.53787 16.4478 5.22746ZM14.7407 13.1785C14.4621 13.8727 13.9228 14.4075 13.2192 14.6872C12.1657 15.1016 9.66565 15.006 8.50137 15.006C7.33708 15.006 4.83351 15.0981 3.78351 14.6872C3.08351 14.411 2.54422 13.8762 2.26208 13.1785C1.84422 12.1337 1.94065 9.65454 1.94065 8.49996C1.94065 7.34537 1.8478 4.86266 2.26208 3.82141C2.54065 3.12725 3.07994 2.59245 3.78351 2.31266C4.83708 1.89829 7.33708 1.99391 8.50137 1.99391C9.66565 1.99391 12.1692 1.90183 13.2192 2.31266C13.9192 2.58891 14.4585 3.1237 14.7407 3.82141C15.1585 4.8662 15.0621 7.34537 15.0621 8.49996C15.0621 9.65454 15.1585 12.1372 14.7407 13.1785Z" fill="white" fill-opacity="0.5"/>
</svg>
