<svg width="123" height="26" viewBox="0 0 123 26" fill="none" xmlns="http://www.w3.org/2000/svg">
<path fill-rule="evenodd" clip-rule="evenodd" d="M10 0H0V10C0 12.7614 2.23858 15 5 15H15V5C15 2.23858 12.7614 0 10 0ZM10 2H2V10C2 11.6569 3.34315 13 5 13H13V5C13 3.34315 11.6569 2 10 2Z" fill="#F88500"/>
<path d="M28.389 0.964H30.565L31.942 4.959L33.336 0.964H35.495L33.421 6.455L34.951 10.297L38.368 0.929999H40.918L36.09 13H34.067L31.942 7.934L29.834 13H27.811L23 0.929999H25.516L28.95 10.297L30.446 6.455L28.389 0.964ZM46.8406 13.085C45.9566 13.085 45.152 12.915 44.4266 12.575C43.7126 12.235 43.095 11.776 42.5736 11.198C42.0636 10.6087 41.667 9.95133 41.3836 9.226C41.1003 8.48933 40.9586 7.73567 40.9586 6.965C40.9586 6.16033 41.106 5.39533 41.4006 4.67C41.7066 3.93333 42.1203 3.28167 42.6416 2.715C43.1743 2.137 43.7976 1.68367 44.5116 1.355C45.237 1.015 46.0303 0.844999 46.8916 0.844999C47.7643 0.844999 48.5576 1.02067 49.2716 1.372C49.997 1.72333 50.6146 2.19367 51.1246 2.783C51.6346 3.37233 52.0313 4.02967 52.3146 4.755C52.598 5.48033 52.7396 6.22833 52.7396 6.999C52.7396 7.79233 52.5923 8.55733 52.2976 9.294C52.003 10.0193 51.5893 10.671 51.0566 11.249C50.5353 11.8157 49.912 12.2633 49.1866 12.592C48.4726 12.9207 47.6906 13.085 46.8406 13.085ZM43.3386 6.965C43.3386 7.48633 43.418 7.99067 43.5766 8.478C43.7353 8.96533 43.962 9.40167 44.2566 9.787C44.5626 10.161 44.931 10.4613 45.3616 10.688C45.8036 10.9033 46.3023 11.011 46.8576 11.011C47.4243 11.011 47.9286 10.8977 48.3706 10.671C48.8126 10.433 49.181 10.1213 49.4756 9.736C49.7703 9.33933 49.9913 8.903 50.1386 8.427C50.2973 7.93967 50.3766 7.45233 50.3766 6.965C50.3766 6.44367 50.2916 5.945 50.1216 5.469C49.963 4.98167 49.7306 4.551 49.4246 4.177C49.13 3.79167 48.7616 3.49133 48.3196 3.276C47.889 3.04933 47.4016 2.936 46.8576 2.936C46.2796 2.936 45.7696 3.055 45.3276 3.293C44.897 3.51967 44.5343 3.82567 44.2396 4.211C43.945 4.59633 43.7183 5.027 43.5596 5.503C43.4123 5.979 43.3386 6.46633 43.3386 6.965ZM59.6903 13.085C58.8063 13.085 58.0016 12.915 57.2763 12.575C56.5623 12.235 55.9446 11.776 55.4233 11.198C54.9133 10.6087 54.5166 9.95133 54.2333 9.226C53.9499 8.48933 53.8083 7.73567 53.8083 6.965C53.8083 6.16033 53.9556 5.39533 54.2503 4.67C54.5563 3.93333 54.9699 3.28167 55.4913 2.715C56.0239 2.137 56.6473 1.68367 57.3613 1.355C58.0866 1.015 58.8799 0.844999 59.7413 0.844999C60.6139 0.844999 61.4073 1.02067 62.1213 1.372C62.8466 1.72333 63.4643 2.19367 63.9743 2.783C64.4843 3.37233 64.8809 4.02967 65.1643 4.755C65.4476 5.48033 65.5893 6.22833 65.5893 6.999C65.5893 7.79233 65.4419 8.55733 65.1473 9.294C64.8526 10.0193 64.4389 10.671 63.9062 11.249C63.3849 11.8157 62.7616 12.2633 62.0363 12.592C61.3223 12.9207 60.5403 13.085 59.6903 13.085ZM56.1883 6.965C56.1883 7.48633 56.2676 7.99067 56.4263 8.478C56.5849 8.96533 56.8116 9.40167 57.1063 9.787C57.4123 10.161 57.7806 10.4613 58.2113 10.688C58.6533 10.9033 59.1519 11.011 59.7073 11.011C60.2739 11.011 60.7783 10.8977 61.2203 10.671C61.6623 10.433 62.0306 10.1213 62.3253 9.736C62.6199 9.33933 62.8409 8.903 62.9883 8.427C63.1469 7.93967 63.2263 7.45233 63.2263 6.965C63.2263 6.44367 63.1413 5.945 62.9713 5.469C62.8126 4.98167 62.5803 4.551 62.2743 4.177C61.9796 3.79167 61.6113 3.49133 61.1693 3.276C60.7386 3.04933 60.2513 2.936 59.7073 2.936C59.1293 2.936 58.6193 3.055 58.1773 3.293C57.7466 3.51967 57.3839 3.82567 57.0893 4.211C56.7946 4.59633 56.5679 5.027 56.4093 5.503C56.2619 5.979 56.1883 6.46633 56.1883 6.965ZM67.3889 13V0.929999H71.7749C73.0895 0.929999 74.1889 1.202 75.0729 1.746C75.9569 2.27867 76.6199 3.004 77.0619 3.922C77.5039 4.82867 77.7249 5.83733 77.7249 6.948C77.7249 8.172 77.4812 9.23733 76.9939 10.144C76.5065 11.0507 75.8152 11.7533 74.9199 12.252C74.0359 12.7507 72.9875 13 71.7749 13H67.3889ZM75.3619 6.948C75.3619 6.166 75.2202 5.48033 74.9369 4.891C74.6535 4.29033 74.2455 3.82567 73.7129 3.497C73.1802 3.157 72.5342 2.987 71.7749 2.987H69.7349V10.943H71.7749C72.5455 10.943 73.1972 10.773 73.7299 10.433C74.2625 10.0817 74.6649 9.60567 74.9369 9.005C75.2202 8.393 75.3619 7.70733 75.3619 6.948ZM88.3524 2.987H84.4934V13H82.1644V2.987H78.3054V0.929999H88.3524V2.987ZM98.2318 10.943V13H89.8508V0.929999H98.0788V2.987H92.1968V5.894H97.2798V7.798H92.1968V10.943H98.2318ZM99.1139 6.88C99.1139 6.14333 99.2442 5.42367 99.5049 4.721C99.7769 4.007 100.168 3.361 100.678 2.783C101.188 2.19367 101.811 1.729 102.548 1.389C103.285 1.03767 104.123 0.861999 105.064 0.861999C106.175 0.861999 107.132 1.10567 107.937 1.593C108.753 2.08033 109.359 2.715 109.756 3.497L107.954 4.738C107.75 4.28467 107.484 3.92767 107.155 3.667C106.826 3.395 106.475 3.208 106.101 3.106C105.727 2.99267 105.359 2.936 104.996 2.936C104.407 2.936 103.891 3.055 103.449 3.293C103.018 3.531 102.656 3.84267 102.361 4.228C102.066 4.61333 101.845 5.044 101.698 5.52C101.562 5.996 101.494 6.472 101.494 6.948C101.494 7.48067 101.579 7.99633 101.749 8.495C101.919 8.98233 102.157 9.41867 102.463 9.804C102.78 10.178 103.154 10.4783 103.585 10.705C104.027 10.9203 104.509 11.028 105.03 11.028C105.404 11.028 105.784 10.9657 106.169 10.841C106.554 10.7163 106.911 10.518 107.24 10.246C107.569 9.974 107.824 9.62267 108.005 9.192L109.926 10.297C109.688 10.8977 109.297 11.4077 108.753 11.827C108.22 12.2463 107.62 12.5637 106.951 12.779C106.282 12.9943 105.619 13.102 104.962 13.102C104.101 13.102 103.313 12.9263 102.599 12.575C101.885 12.2123 101.267 11.7363 100.746 11.147C100.236 10.5463 99.8336 9.87767 99.5389 9.141C99.2556 8.393 99.1139 7.63933 99.1139 6.88ZM121.648 0.929999V13H119.319V7.849H113.845V13H111.499V0.929999H113.845V5.809H119.319V0.929999H121.648Z" fill="white"/>
<path d="M26.708 16.48H27.416L30.956 25H30.068L28.964 22.336H25.136L24.044 25H23.144L26.708 16.48ZM28.772 21.676L27.056 17.464L25.316 21.676H28.772ZM38.0094 19.468C37.4654 19.484 36.9854 19.636 36.5694 19.924C36.1614 20.212 35.8734 20.608 35.7054 21.112V25H34.8894V18.748H35.6574V20.248C35.8734 19.808 36.1574 19.452 36.5094 19.18C36.8694 18.908 37.2494 18.756 37.6494 18.724C37.7294 18.716 37.7974 18.712 37.8534 18.712C37.9174 18.712 37.9694 18.716 38.0094 18.724V19.468ZM44.4892 25.12C44.0332 25.12 43.6132 25.036 43.2292 24.868C42.8532 24.692 42.5212 24.452 42.2332 24.148C41.9532 23.844 41.7332 23.496 41.5732 23.104C41.4212 22.712 41.3452 22.296 41.3452 21.856C41.3452 21.264 41.4772 20.724 41.7412 20.236C42.0052 19.748 42.3732 19.36 42.8452 19.072C43.3172 18.784 43.8612 18.64 44.4772 18.64C45.0612 18.64 45.5772 18.776 46.0252 19.048C46.4732 19.312 46.8052 19.672 47.0212 20.128L46.2292 20.38C46.0532 20.06 45.8052 19.812 45.4852 19.636C45.1732 19.452 44.8252 19.36 44.4412 19.36C44.0252 19.36 43.6452 19.468 43.3012 19.684C42.9572 19.9 42.6812 20.196 42.4732 20.572C42.2732 20.948 42.1732 21.376 42.1732 21.856C42.1732 22.328 42.2772 22.756 42.4852 23.14C42.6932 23.524 42.9692 23.832 43.3132 24.064C43.6572 24.288 44.0372 24.4 44.4532 24.4C44.7252 24.4 44.9852 24.352 45.2332 24.256C45.4892 24.16 45.7092 24.032 45.8932 23.872C46.0852 23.704 46.2132 23.524 46.2772 23.332L47.0812 23.572C46.9692 23.868 46.7812 24.136 46.5172 24.376C46.2612 24.608 45.9572 24.792 45.6052 24.928C45.2612 25.056 44.8892 25.12 44.4892 25.12ZM56.4991 25H55.6831V21.508C55.6831 20.804 55.5591 20.276 55.3111 19.924C55.0631 19.564 54.7071 19.384 54.2431 19.384C53.9391 19.384 53.6351 19.464 53.3311 19.624C53.0351 19.776 52.7711 19.988 52.5391 20.26C52.3151 20.524 52.1551 20.828 52.0591 21.172V25H51.2431V16.24H52.0591V20.164C52.3071 19.7 52.6511 19.332 53.0911 19.06C53.5391 18.78 54.0151 18.64 54.5191 18.64C54.8791 18.64 55.1831 18.704 55.4311 18.832C55.6871 18.96 55.8911 19.148 56.0431 19.396C56.2031 19.636 56.3191 19.92 56.3911 20.248C56.4631 20.568 56.4991 20.932 56.4991 21.34V25ZM61.1192 25V18.748H61.9352V25H61.1192ZM61.1192 17.44V16.24H61.9352V17.44H61.1192ZM69.6125 24.7C69.5485 24.724 69.4485 24.768 69.3125 24.832C69.1765 24.896 69.0125 24.952 68.8205 25C68.6285 25.048 68.4205 25.072 68.1965 25.072C67.9645 25.072 67.7445 25.028 67.5365 24.94C67.3365 24.852 67.1765 24.72 67.0565 24.544C66.9365 24.36 66.8765 24.136 66.8765 23.872V19.396H66.0125V18.748H66.8765V16.636H67.6925V18.748H69.1325V19.396H67.6925V23.644C67.7085 23.868 67.7885 24.036 67.9325 24.148C68.0845 24.26 68.2565 24.316 68.4485 24.316C68.6725 24.316 68.8765 24.28 69.0605 24.208C69.2445 24.128 69.3565 24.072 69.3965 24.04L69.6125 24.7ZM76.1066 25.12C75.6586 25.12 75.2426 25.036 74.8586 24.868C74.4746 24.692 74.1426 24.456 73.8626 24.16C73.5826 23.856 73.3626 23.508 73.2026 23.116C73.0506 22.724 72.9746 22.304 72.9746 21.856C72.9746 21.272 73.1066 20.736 73.3706 20.248C73.6426 19.76 74.0146 19.372 74.4866 19.084C74.9586 18.788 75.4946 18.64 76.0946 18.64C76.7106 18.64 77.2466 18.788 77.7026 19.084C78.1666 19.38 78.5306 19.772 78.7946 20.26C79.0586 20.74 79.1906 21.268 79.1906 21.844C79.1906 21.908 79.1906 21.972 79.1906 22.036C79.1906 22.092 79.1866 22.136 79.1786 22.168H73.8266C73.8666 22.616 73.9906 23.016 74.1986 23.368C74.4146 23.712 74.6906 23.988 75.0266 24.196C75.3706 24.396 75.7426 24.496 76.1426 24.496C76.5506 24.496 76.9346 24.392 77.2946 24.184C77.6626 23.976 77.9186 23.704 78.0626 23.368L78.7706 23.56C78.6426 23.856 78.4466 24.124 78.1826 24.364C77.9186 24.604 77.6066 24.792 77.2466 24.928C76.8946 25.056 76.5146 25.12 76.1066 25.12ZM73.8026 21.58H78.4226C78.3906 21.124 78.2666 20.724 78.0506 20.38C77.8426 20.036 77.5666 19.768 77.2226 19.576C76.8866 19.376 76.5146 19.276 76.1066 19.276C75.6986 19.276 75.3266 19.376 74.9906 19.576C74.6546 19.768 74.3786 20.04 74.1626 20.392C73.9546 20.736 73.8346 21.132 73.8026 21.58ZM86.0415 25.12C85.5855 25.12 85.1655 25.036 84.7815 24.868C84.4055 24.692 84.0735 24.452 83.7855 24.148C83.5055 23.844 83.2855 23.496 83.1255 23.104C82.9735 22.712 82.8975 22.296 82.8975 21.856C82.8975 21.264 83.0295 20.724 83.2935 20.236C83.5575 19.748 83.9255 19.36 84.3975 19.072C84.8695 18.784 85.4135 18.64 86.0295 18.64C86.6135 18.64 87.1295 18.776 87.5775 19.048C88.0255 19.312 88.3575 19.672 88.5735 20.128L87.7815 20.38C87.6055 20.06 87.3575 19.812 87.0375 19.636C86.7255 19.452 86.3775 19.36 85.9935 19.36C85.5775 19.36 85.1975 19.468 84.8535 19.684C84.5095 19.9 84.2335 20.196 84.0255 20.572C83.8255 20.948 83.7255 21.376 83.7255 21.856C83.7255 22.328 83.8295 22.756 84.0375 23.14C84.2455 23.524 84.5215 23.832 84.8655 24.064C85.2095 24.288 85.5895 24.4 86.0055 24.4C86.2775 24.4 86.5375 24.352 86.7855 24.256C87.0415 24.16 87.2615 24.032 87.4455 23.872C87.6375 23.704 87.7655 23.524 87.8295 23.332L88.6335 23.572C88.5215 23.868 88.3335 24.136 88.0695 24.376C87.8135 24.608 87.5095 24.792 87.1575 24.928C86.8135 25.056 86.4415 25.12 86.0415 25.12ZM95.7955 24.7C95.7315 24.724 95.6315 24.768 95.4955 24.832C95.3595 24.896 95.1955 24.952 95.0035 25C94.8115 25.048 94.6035 25.072 94.3795 25.072C94.1475 25.072 93.9275 25.028 93.7195 24.94C93.5195 24.852 93.3595 24.72 93.2395 24.544C93.1195 24.36 93.0595 24.136 93.0595 23.872V19.396H92.1955V18.748H93.0595V16.636H93.8755V18.748H95.3155V19.396H93.8755V23.644C93.8915 23.868 93.9715 24.036 94.1155 24.148C94.2675 24.26 94.4395 24.316 94.6315 24.316C94.8555 24.316 95.0595 24.28 95.2435 24.208C95.4275 24.128 95.5395 24.072 95.5795 24.04L95.7955 24.7ZM99.635 22.42V18.748H100.451V22.276C100.451 22.988 100.571 23.52 100.811 23.872C101.059 24.224 101.423 24.4 101.903 24.4C102.223 24.4 102.531 24.332 102.827 24.196C103.131 24.052 103.399 23.852 103.631 23.596C103.863 23.332 104.039 23.028 104.159 22.684V18.748H104.975V24.016C104.975 24.128 104.999 24.212 105.047 24.268C105.095 24.316 105.167 24.344 105.263 24.352V25C105.167 25.008 105.091 25.012 105.035 25.012C104.979 25.02 104.927 25.024 104.879 25.024C104.719 25.008 104.579 24.944 104.459 24.832C104.347 24.72 104.287 24.584 104.279 24.424L104.255 23.584C103.983 24.064 103.611 24.44 103.139 24.712C102.675 24.984 102.171 25.12 101.627 25.12C100.971 25.12 100.475 24.892 100.139 24.436C99.803 23.98 99.635 23.308 99.635 22.42ZM112.82 19.468C112.276 19.484 111.796 19.636 111.38 19.924C110.972 20.212 110.684 20.608 110.516 21.112V25H109.7V18.748H110.468V20.248C110.684 19.808 110.968 19.452 111.32 19.18C111.68 18.908 112.06 18.756 112.46 18.724C112.54 18.716 112.608 18.712 112.664 18.712C112.728 18.712 112.78 18.716 112.82 18.724V19.468ZM119.288 25.12C118.84 25.12 118.424 25.036 118.04 24.868C117.656 24.692 117.324 24.456 117.044 24.16C116.764 23.856 116.544 23.508 116.384 23.116C116.232 22.724 116.156 22.304 116.156 21.856C116.156 21.272 116.288 20.736 116.552 20.248C116.824 19.76 117.196 19.372 117.668 19.084C118.14 18.788 118.676 18.64 119.276 18.64C119.892 18.64 120.428 18.788 120.884 19.084C121.348 19.38 121.712 19.772 121.976 20.26C122.24 20.74 122.372 21.268 122.372 21.844C122.372 21.908 122.372 21.972 122.372 22.036C122.372 22.092 122.368 22.136 122.36 22.168H117.008C117.048 22.616 117.172 23.016 117.38 23.368C117.596 23.712 117.872 23.988 118.208 24.196C118.552 24.396 118.924 24.496 119.324 24.496C119.732 24.496 120.116 24.392 120.476 24.184C120.844 23.976 121.1 23.704 121.244 23.368L121.952 23.56C121.824 23.856 121.628 24.124 121.364 24.364C121.1 24.604 120.788 24.792 120.428 24.928C120.076 25.056 119.696 25.12 119.288 25.12ZM116.984 21.58H121.604C121.572 21.124 121.448 20.724 121.232 20.38C121.024 20.036 120.748 19.768 120.404 19.576C120.068 19.376 119.696 19.276 119.288 19.276C118.88 19.276 118.508 19.376 118.172 19.576C117.836 19.768 117.56 20.04 117.344 20.392C117.136 20.736 117.016 21.132 116.984 21.58Z" fill="white" fill-opacity="0.45"/>
</svg>
