<svg width="123" height="26" viewBox="0 0 123 26" fill="none" xmlns="http://www.w3.org/2000/svg">
<g opacity="0.5">
<path fill-rule="evenodd" clip-rule="evenodd" d="M10 0.658447H0V10.5853C0 13.3467 2.23858 15.5853 5 15.5853H15V5.65845C15 2.89702 12.7614 0.658447 10 0.658447ZM10 2.64869H2V10.595C2 12.2519 3.34315 13.595 5 13.595H13V5.64869C13 3.99184 11.6569 2.64869 10 2.64869Z" fill="white"/>
<path d="M28.389 1.58827H30.565L31.942 5.58327L33.336 1.58827H35.495L33.421 7.07927L34.951 10.9213L38.368 1.55427H40.918L36.09 13.6243H34.067L31.942 8.55827L29.834 13.6243H27.811L23 1.55427H25.516L28.95 10.9213L30.446 7.07927L28.389 1.58827ZM46.8406 13.7093C45.9566 13.7093 45.152 13.5393 44.4266 13.1993C43.7126 12.8593 43.095 12.4003 42.5736 11.8223C42.0636 11.2329 41.667 10.5756 41.3836 9.85027C41.1003 9.1136 40.9586 8.35993 40.9586 7.58927C40.9586 6.7846 41.106 6.0196 41.4006 5.29427C41.7066 4.5576 42.1203 3.90593 42.6416 3.33927C43.1743 2.76127 43.7976 2.30793 44.5116 1.97927C45.237 1.63927 46.0303 1.46927 46.8916 1.46927C47.7643 1.46927 48.5576 1.64493 49.2716 1.99627C49.997 2.3476 50.6146 2.81793 51.1246 3.40727C51.6346 3.9966 52.0313 4.65393 52.3146 5.37927C52.598 6.1046 52.7396 6.8526 52.7396 7.62327C52.7396 8.4166 52.5923 9.1816 52.2976 9.91827C52.003 10.6436 51.5893 11.2953 51.0566 11.8733C50.5353 12.4399 49.912 12.8876 49.1866 13.2163C48.4726 13.5449 47.6906 13.7093 46.8406 13.7093ZM43.3386 7.58927C43.3386 8.1106 43.418 8.61493 43.5766 9.10227C43.7353 9.5896 43.962 10.0259 44.2566 10.4113C44.5626 10.7853 44.931 11.0856 45.3616 11.3123C45.8036 11.5276 46.3023 11.6353 46.8576 11.6353C47.4243 11.6353 47.9286 11.5219 48.3706 11.2953C48.8126 11.0573 49.181 10.7456 49.4756 10.3603C49.7703 9.9636 49.9913 9.52727 50.1386 9.05127C50.2973 8.56393 50.3766 8.0766 50.3766 7.58927C50.3766 7.06793 50.2916 6.56927 50.1216 6.09327C49.963 5.60593 49.7306 5.17527 49.4246 4.80127C49.13 4.41593 48.7616 4.1156 48.3196 3.90027C47.889 3.6736 47.4016 3.56027 46.8576 3.56027C46.2796 3.56027 45.7696 3.67927 45.3276 3.91727C44.897 4.14393 44.5343 4.44993 44.2396 4.83527C43.945 5.2206 43.7183 5.65127 43.5596 6.12727C43.4123 6.60327 43.3386 7.0906 43.3386 7.58927ZM59.6903 13.7093C58.8063 13.7093 58.0016 13.5393 57.2763 13.1993C56.5623 12.8593 55.9446 12.4003 55.4233 11.8223C54.9133 11.2329 54.5166 10.5756 54.2333 9.85027C53.9499 9.1136 53.8083 8.35993 53.8083 7.58927C53.8083 6.7846 53.9556 6.0196 54.2503 5.29427C54.5563 4.5576 54.9699 3.90593 55.4913 3.33927C56.0239 2.76127 56.6473 2.30793 57.3613 1.97927C58.0866 1.63927 58.8799 1.46927 59.7413 1.46927C60.6139 1.46927 61.4073 1.64493 62.1213 1.99627C62.8466 2.3476 63.4643 2.81793 63.9743 3.40727C64.4843 3.9966 64.8809 4.65393 65.1643 5.37927C65.4476 6.1046 65.5893 6.8526 65.5893 7.62327C65.5893 8.4166 65.4419 9.1816 65.1473 9.91827C64.8526 10.6436 64.4389 11.2953 63.9062 11.8733C63.3849 12.4399 62.7616 12.8876 62.0363 13.2163C61.3223 13.5449 60.5403 13.7093 59.6903 13.7093ZM56.1883 7.58927C56.1883 8.1106 56.2676 8.61493 56.4263 9.10227C56.5849 9.5896 56.8116 10.0259 57.1063 10.4113C57.4123 10.7853 57.7806 11.0856 58.2113 11.3123C58.6533 11.5276 59.1519 11.6353 59.7073 11.6353C60.2739 11.6353 60.7783 11.5219 61.2203 11.2953C61.6623 11.0573 62.0306 10.7456 62.3253 10.3603C62.6199 9.9636 62.8409 9.52727 62.9883 9.05127C63.1469 8.56393 63.2263 8.0766 63.2263 7.58927C63.2263 7.06793 63.1413 6.56927 62.9713 6.09327C62.8126 5.60593 62.5803 5.17527 62.2743 4.80127C61.9796 4.41593 61.6113 4.1156 61.1693 3.90027C60.7386 3.6736 60.2513 3.56027 59.7073 3.56027C59.1293 3.56027 58.6193 3.67927 58.1773 3.91727C57.7466 4.14393 57.3839 4.44993 57.0893 4.83527C56.7946 5.2206 56.5679 5.65127 56.4093 6.12727C56.2619 6.60327 56.1883 7.0906 56.1883 7.58927ZM67.3889 13.6243V1.55427H71.7749C73.0895 1.55427 74.1889 1.82627 75.0729 2.37027C75.9569 2.90293 76.6199 3.62827 77.0619 4.54627C77.5039 5.45293 77.7249 6.4616 77.7249 7.57227C77.7249 8.79627 77.4812 9.8616 76.9939 10.7683C76.5065 11.6749 75.8152 12.3776 74.9199 12.8763C74.0359 13.3749 72.9875 13.6243 71.7749 13.6243H67.3889ZM75.3619 7.57227C75.3619 6.79027 75.2202 6.1046 74.9369 5.51527C74.6535 4.9146 74.2455 4.44993 73.7129 4.12127C73.1802 3.78127 72.5342 3.61127 71.7749 3.61127H69.7349V11.5673H71.7749C72.5455 11.5673 73.1972 11.3973 73.7299 11.0573C74.2625 10.7059 74.6649 10.2299 74.9369 9.62927C75.2202 9.01727 75.3619 8.3316 75.3619 7.57227ZM88.3524 3.61127H84.4934V13.6243H82.1644V3.61127H78.3054V1.55427H88.3524V3.61127ZM98.2318 11.5673V13.6243H89.8508V1.55427H98.0788V3.61127H92.1968V6.51827H97.2798V8.42227H92.1968V11.5673H98.2318ZM99.1139 7.50427C99.1139 6.7676 99.2442 6.04793 99.5049 5.34527C99.7769 4.63127 100.168 3.98527 100.678 3.40727C101.188 2.81793 101.811 2.35327 102.548 2.01327C103.285 1.66193 104.123 1.48627 105.064 1.48627C106.175 1.48627 107.132 1.72993 107.937 2.21727C108.753 2.7046 109.359 3.33927 109.756 4.12127L107.954 5.36227C107.75 4.90893 107.484 4.55193 107.155 4.29127C106.826 4.01927 106.475 3.83227 106.101 3.73027C105.727 3.61693 105.359 3.56027 104.996 3.56027C104.407 3.56027 103.891 3.67927 103.449 3.91727C103.018 4.15527 102.656 4.46693 102.361 4.85227C102.066 5.2376 101.845 5.66827 101.698 6.14427C101.562 6.62027 101.494 7.09627 101.494 7.57227C101.494 8.10493 101.579 8.6206 101.749 9.11927C101.919 9.6066 102.157 10.0429 102.463 10.4283C102.78 10.8023 103.154 11.1026 103.585 11.3293C104.027 11.5446 104.509 11.6523 105.03 11.6523C105.404 11.6523 105.784 11.5899 106.169 11.4653C106.554 11.3406 106.911 11.1423 107.24 10.8703C107.569 10.5983 107.824 10.2469 108.005 9.81627L109.926 10.9213C109.688 11.5219 109.297 12.0319 108.753 12.4513C108.22 12.8706 107.62 13.1879 106.951 13.4033C106.282 13.6186 105.619 13.7263 104.962 13.7263C104.101 13.7263 103.313 13.5506 102.599 13.1993C101.885 12.8366 101.267 12.3606 100.746 11.7713C100.236 11.1706 99.8336 10.5019 99.5389 9.76527C99.2556 9.01727 99.1139 8.2636 99.1139 7.50427ZM121.648 1.55427V13.6243H119.319V8.47327H113.845V13.6243H111.499V1.55427H113.845V6.43327H119.319V1.55427H121.648Z" fill="white"/>
<path d="M26.708 17.0359H27.416L30.956 25.5559H30.068L28.964 22.8919H25.136L24.044 25.5559H23.144L26.708 17.0359ZM28.772 22.2319L27.056 18.0199L25.316 22.2319H28.772ZM38.0094 20.0239C37.4654 20.0399 36.9854 20.1919 36.5694 20.4799C36.1614 20.7679 35.8734 21.1639 35.7054 21.6679V25.5559H34.8894V19.3039H35.6574V20.8039C35.8734 20.3639 36.1574 20.0079 36.5094 19.7359C36.8694 19.4639 37.2494 19.3119 37.6494 19.2799C37.7294 19.2719 37.7974 19.2679 37.8534 19.2679C37.9174 19.2679 37.9694 19.2719 38.0094 19.2799V20.0239ZM44.4892 25.6759C44.0332 25.6759 43.6132 25.5919 43.2292 25.4239C42.8532 25.2479 42.5212 25.0079 42.2332 24.7039C41.9532 24.3999 41.7332 24.0519 41.5732 23.6599C41.4212 23.2679 41.3452 22.8519 41.3452 22.4119C41.3452 21.8199 41.4772 21.2799 41.7412 20.7919C42.0052 20.3039 42.3732 19.9159 42.8452 19.6279C43.3172 19.3399 43.8612 19.1959 44.4772 19.1959C45.0612 19.1959 45.5772 19.3319 46.0252 19.6039C46.4732 19.8679 46.8052 20.2279 47.0212 20.6839L46.2292 20.9359C46.0532 20.6159 45.8052 20.3679 45.4852 20.1919C45.1732 20.0079 44.8252 19.9159 44.4412 19.9159C44.0252 19.9159 43.6452 20.0239 43.3012 20.2399C42.9572 20.4559 42.6812 20.7519 42.4732 21.1279C42.2732 21.5039 42.1732 21.9319 42.1732 22.4119C42.1732 22.8839 42.2772 23.3119 42.4852 23.6959C42.6932 24.0799 42.9692 24.3879 43.3132 24.6199C43.6572 24.8439 44.0372 24.9559 44.4532 24.9559C44.7252 24.9559 44.9852 24.9079 45.2332 24.8119C45.4892 24.7159 45.7092 24.5879 45.8932 24.4279C46.0852 24.2599 46.2132 24.0799 46.2772 23.8879L47.0812 24.1279C46.9692 24.4239 46.7812 24.6919 46.5172 24.9319C46.2612 25.1639 45.9572 25.3479 45.6052 25.4839C45.2612 25.6119 44.8892 25.6759 44.4892 25.6759ZM56.4991 25.5559H55.6831V22.0639C55.6831 21.3599 55.5591 20.8319 55.3111 20.4799C55.0631 20.1199 54.7071 19.9399 54.2431 19.9399C53.9391 19.9399 53.6351 20.0199 53.3311 20.1799C53.0351 20.3319 52.7711 20.5439 52.5391 20.8159C52.3151 21.0799 52.1551 21.3839 52.0591 21.7279V25.5559H51.2431V16.7959H52.0591V20.7199C52.3071 20.2559 52.6511 19.8879 53.0911 19.6159C53.5391 19.3359 54.0151 19.1959 54.5191 19.1959C54.8791 19.1959 55.1831 19.2599 55.4311 19.3879C55.6871 19.5159 55.8911 19.7039 56.0431 19.9519C56.2031 20.1919 56.3191 20.4759 56.3911 20.8039C56.4631 21.1239 56.4991 21.4879 56.4991 21.8959V25.5559ZM61.1192 25.5559V19.3039H61.9352V25.5559H61.1192ZM61.1192 17.9959V16.7959H61.9352V17.9959H61.1192ZM69.6125 25.2559C69.5485 25.2799 69.4485 25.3239 69.3125 25.3879C69.1765 25.4519 69.0125 25.5079 68.8205 25.5559C68.6285 25.6039 68.4205 25.6279 68.1965 25.6279C67.9645 25.6279 67.7445 25.5839 67.5365 25.4959C67.3365 25.4079 67.1765 25.2759 67.0565 25.0999C66.9365 24.9159 66.8765 24.6919 66.8765 24.4279V19.9519H66.0125V19.3039H66.8765V17.1919H67.6925V19.3039H69.1325V19.9519H67.6925V24.1999C67.7085 24.4239 67.7885 24.5919 67.9325 24.7039C68.0845 24.8159 68.2565 24.8719 68.4485 24.8719C68.6725 24.8719 68.8765 24.8359 69.0605 24.7639C69.2445 24.6839 69.3565 24.6279 69.3965 24.5959L69.6125 25.2559ZM76.1066 25.6759C75.6586 25.6759 75.2426 25.5919 74.8586 25.4239C74.4746 25.2479 74.1426 25.0119 73.8626 24.7159C73.5826 24.4119 73.3626 24.0639 73.2026 23.6719C73.0506 23.2799 72.9746 22.8599 72.9746 22.4119C72.9746 21.8279 73.1066 21.2919 73.3706 20.8039C73.6426 20.3159 74.0146 19.9279 74.4866 19.6399C74.9586 19.3439 75.4946 19.1959 76.0946 19.1959C76.7106 19.1959 77.2466 19.3439 77.7026 19.6399C78.1666 19.9359 78.5306 20.3279 78.7946 20.8159C79.0586 21.2959 79.1906 21.8239 79.1906 22.3999C79.1906 22.4639 79.1906 22.5279 79.1906 22.5919C79.1906 22.6479 79.1866 22.6919 79.1786 22.7239H73.8266C73.8666 23.1719 73.9906 23.5719 74.1986 23.9239C74.4146 24.2679 74.6906 24.5439 75.0266 24.7519C75.3706 24.9519 75.7426 25.0519 76.1426 25.0519C76.5506 25.0519 76.9346 24.9479 77.2946 24.7399C77.6626 24.5319 77.9186 24.2599 78.0626 23.9239L78.7706 24.1159C78.6426 24.4119 78.4466 24.6799 78.1826 24.9199C77.9186 25.1599 77.6066 25.3479 77.2466 25.4839C76.8946 25.6119 76.5146 25.6759 76.1066 25.6759ZM73.8026 22.1359H78.4226C78.3906 21.6799 78.2666 21.2799 78.0506 20.9359C77.8426 20.5919 77.5666 20.3239 77.2226 20.1319C76.8866 19.9319 76.5146 19.8319 76.1066 19.8319C75.6986 19.8319 75.3266 19.9319 74.9906 20.1319C74.6546 20.3239 74.3786 20.5959 74.1626 20.9479C73.9546 21.2919 73.8346 21.6879 73.8026 22.1359ZM86.0415 25.6759C85.5855 25.6759 85.1655 25.5919 84.7815 25.4239C84.4055 25.2479 84.0735 25.0079 83.7855 24.7039C83.5055 24.3999 83.2855 24.0519 83.1255 23.6599C82.9735 23.2679 82.8975 22.8519 82.8975 22.4119C82.8975 21.8199 83.0295 21.2799 83.2935 20.7919C83.5575 20.3039 83.9255 19.9159 84.3975 19.6279C84.8695 19.3399 85.4135 19.1959 86.0295 19.1959C86.6135 19.1959 87.1295 19.3319 87.5775 19.6039C88.0255 19.8679 88.3575 20.2279 88.5735 20.6839L87.7815 20.9359C87.6055 20.6159 87.3575 20.3679 87.0375 20.1919C86.7255 20.0079 86.3775 19.9159 85.9935 19.9159C85.5775 19.9159 85.1975 20.0239 84.8535 20.2399C84.5095 20.4559 84.2335 20.7519 84.0255 21.1279C83.8255 21.5039 83.7255 21.9319 83.7255 22.4119C83.7255 22.8839 83.8295 23.3119 84.0375 23.6959C84.2455 24.0799 84.5215 24.3879 84.8655 24.6199C85.2095 24.8439 85.5895 24.9559 86.0055 24.9559C86.2775 24.9559 86.5375 24.9079 86.7855 24.8119C87.0415 24.7159 87.2615 24.5879 87.4455 24.4279C87.6375 24.2599 87.7655 24.0799 87.8295 23.8879L88.6335 24.1279C88.5215 24.4239 88.3335 24.6919 88.0695 24.9319C87.8135 25.1639 87.5095 25.3479 87.1575 25.4839C86.8135 25.6119 86.4415 25.6759 86.0415 25.6759ZM95.7955 25.2559C95.7315 25.2799 95.6315 25.3239 95.4955 25.3879C95.3595 25.4519 95.1955 25.5079 95.0035 25.5559C94.8115 25.6039 94.6035 25.6279 94.3795 25.6279C94.1475 25.6279 93.9275 25.5839 93.7195 25.4959C93.5195 25.4079 93.3595 25.2759 93.2395 25.0999C93.1195 24.9159 93.0595 24.6919 93.0595 24.4279V19.9519H92.1955V19.3039H93.0595V17.1919H93.8755V19.3039H95.3155V19.9519H93.8755V24.1999C93.8915 24.4239 93.9715 24.5919 94.1155 24.7039C94.2675 24.8159 94.4395 24.8719 94.6315 24.8719C94.8555 24.8719 95.0595 24.8359 95.2435 24.7639C95.4275 24.6839 95.5395 24.6279 95.5795 24.5959L95.7955 25.2559ZM99.635 22.9759V19.3039H100.451V22.8319C100.451 23.5439 100.571 24.0759 100.811 24.4279C101.059 24.7799 101.423 24.9559 101.903 24.9559C102.223 24.9559 102.531 24.8879 102.827 24.7519C103.131 24.6079 103.399 24.4079 103.631 24.1519C103.863 23.8879 104.039 23.5839 104.159 23.2399V19.3039H104.975V24.5719C104.975 24.6839 104.999 24.7679 105.047 24.8239C105.095 24.8719 105.167 24.8999 105.263 24.9079V25.5559C105.167 25.5639 105.091 25.5679 105.035 25.5679C104.979 25.5759 104.927 25.5799 104.879 25.5799C104.719 25.5639 104.579 25.4999 104.459 25.3879C104.347 25.2759 104.287 25.1399 104.279 24.9799L104.255 24.1399C103.983 24.6199 103.611 24.9959 103.139 25.2679C102.675 25.5399 102.171 25.6759 101.627 25.6759C100.971 25.6759 100.475 25.4479 100.139 24.9919C99.803 24.5359 99.635 23.8639 99.635 22.9759ZM112.82 20.0239C112.276 20.0399 111.796 20.1919 111.38 20.4799C110.972 20.7679 110.684 21.1639 110.516 21.6679V25.5559H109.7V19.3039H110.468V20.8039C110.684 20.3639 110.968 20.0079 111.32 19.7359C111.68 19.4639 112.06 19.3119 112.46 19.2799C112.54 19.2719 112.608 19.2679 112.664 19.2679C112.728 19.2679 112.78 19.2719 112.82 19.2799V20.0239ZM119.288 25.6759C118.84 25.6759 118.424 25.5919 118.04 25.4239C117.656 25.2479 117.324 25.0119 117.044 24.7159C116.764 24.4119 116.544 24.0639 116.384 23.6719C116.232 23.2799 116.156 22.8599 116.156 22.4119C116.156 21.8279 116.288 21.2919 116.552 20.8039C116.824 20.3159 117.196 19.9279 117.668 19.6399C118.14 19.3439 118.676 19.1959 119.276 19.1959C119.892 19.1959 120.428 19.3439 120.884 19.6399C121.348 19.9359 121.712 20.3279 121.976 20.8159C122.24 21.2959 122.372 21.8239 122.372 22.3999C122.372 22.4639 122.372 22.5279 122.372 22.5919C122.372 22.6479 122.368 22.6919 122.36 22.7239H117.008C117.048 23.1719 117.172 23.5719 117.38 23.9239C117.596 24.2679 117.872 24.5439 118.208 24.7519C118.552 24.9519 118.924 25.0519 119.324 25.0519C119.732 25.0519 120.116 24.9479 120.476 24.7399C120.844 24.5319 121.1 24.2599 121.244 23.9239L121.952 24.1159C121.824 24.4119 121.628 24.6799 121.364 24.9199C121.1 25.1599 120.788 25.3479 120.428 25.4839C120.076 25.6119 119.696 25.6759 119.288 25.6759ZM116.984 22.1359H121.604C121.572 21.6799 121.448 21.2799 121.232 20.9359C121.024 20.5919 120.748 20.3239 120.404 20.1319C120.068 19.9319 119.696 19.8319 119.288 19.8319C118.88 19.8319 118.508 19.9319 118.172 20.1319C117.836 20.3239 117.56 20.5959 117.344 20.9479C117.136 21.2919 117.016 21.6879 116.984 22.1359Z" fill="white" fill-opacity="0.45"/>
</g>
</svg>
