<svg width="42" height="42" viewBox="0 0 42 42" fill="none" xmlns="http://www.w3.org/2000/svg">
<g clip-path="url(#clip0_117_1156)">
<path d="M20.0054 41.5306C18.364 40.5257 0.620601 28.8179 0.321498 28.5424C-0.0559181 28.1948 -0.106392 27.3912 0.219866 26.9243C0.478289 26.5545 1.26902 26.3761 1.67775 26.5953C1.83939 26.682 6.22351 29.548 11.4202 32.9641C16.617 36.3802 20.9279 39.1752 21 39.1752C21.0721 39.1752 25.383 36.3802 30.5798 32.9641C35.7765 29.548 40.1606 26.682 40.3223 26.5953C40.731 26.3761 41.5217 26.5545 41.7802 26.9243C42.1064 27.3912 42.0559 28.1947 41.6785 28.5429C41.3799 28.8185 23.6418 40.5223 21.9947 41.5306C21.573 41.7888 21.1254 42 21 42C20.8746 42 20.427 41.7888 20.0054 41.5306ZM20.2638 34.8591C19.497 34.442 19.3543 33.5187 19.9624 32.9092C20.7707 32.0991 22.4091 32.6255 22.4091 33.6954C22.4091 34.2584 22.1971 34.6121 21.7074 34.8659C21.1956 35.1312 20.7603 35.1291 20.2638 34.859V34.8591ZM16.6865 32.479C15.6873 32.0357 15.3516 31.1133 15.9241 30.3838C16.2911 29.9161 16.7799 29.8386 17.4538 30.141C18.4516 30.5888 18.7576 31.4852 18.1466 32.1706C17.7446 32.6215 17.2455 32.7269 16.6865 32.479ZM24.2912 32.5381C23.5961 32.2569 23.3316 31.3392 23.7664 30.7169C24.0618 30.2941 24.9944 29.8749 25.4466 29.9615C25.9198 30.0522 26.3546 30.6393 26.3546 31.1875C26.3546 31.7151 25.9516 32.2015 25.2823 32.4818C24.7515 32.7041 24.7079 32.7066 24.2912 32.5381ZM12.6159 29.8297C11.9766 29.4754 11.7 29.1005 11.7 28.589C11.7 27.1946 13.273 26.8923 14.2239 28.104C14.6158 28.6034 14.5949 29.034 14.1534 29.56C13.7615 30.0267 13.1612 30.1321 12.6159 29.8297ZM27.8467 29.56C27.4051 29.034 27.3843 28.6034 27.7761 28.104C28.4328 27.2673 29.6134 27.0974 30.0846 27.7718C30.4111 28.2389 30.3605 29.0427 29.983 29.3873C29.159 30.1396 28.3857 30.2021 27.8467 29.56ZM20.3828 28.278C19.2667 27.6282 0.317985 15.0956 0.180588 14.9164C-0.112699 14.5338 -0.0367488 13.6981 0.321498 13.3659C0.495873 13.2043 5.10891 10.1308 10.5727 6.53604C18.8989 1.05799 20.5867 6.49738e-05 21 3.12841e-09C21.4135 -6.63799e-05 23.0989 1.05629 31.4273 6.5355C36.8911 10.1301 41.5042 13.2036 41.6785 13.3655C42.0368 13.6981 42.1127 14.5338 41.8194 14.9164C41.6689 15.1129 22.3578 27.8737 21.5779 28.292C21.2244 28.4816 20.7224 28.4758 20.3828 28.278V28.278ZM8.6704 27.2411C8.03987 26.9114 7.75449 26.4959 7.75449 25.9076C7.75449 24.881 8.81038 24.4395 9.7997 25.0524C11.274 25.9657 10.2026 28.0422 8.6704 27.2411ZM32.167 27.3065C31.9925 27.2362 31.7452 26.9588 31.6173 26.69C31.4206 26.2766 31.4123 26.1347 31.5635 25.7687C31.947 24.8409 33.3377 24.4538 33.9481 25.1051C34.568 25.7665 34.2841 26.7769 33.3541 27.2193C32.8079 27.479 32.628 27.4923 32.167 27.3065ZM4.41592 24.475C4.15514 24.3076 3.89848 23.9811 3.80539 23.6983C3.66942 23.2854 3.68529 23.141 3.90881 22.7574C4.26802 22.1409 4.87289 21.9747 5.56284 22.3028C6.53264 22.7641 6.83063 23.7475 6.2034 24.4167C5.78987 24.8579 5.04989 24.8821 4.41592 24.475ZM35.7966 24.4167C35.1694 23.7475 35.4674 22.7641 36.4372 22.3028C37.1271 21.9747 37.732 22.1409 38.0912 22.7574C38.3152 23.1418 38.3308 23.2849 38.1937 23.7011C37.8687 24.6884 36.4485 25.1123 35.7966 24.4167ZM0.677315 22.0131C0.196317 21.7428 0.00445046 21.3903 0.00445046 20.7772C0.00445046 19.7429 1.23766 19.3162 2.10729 20.0497C2.92227 20.737 2.58645 22.0198 1.55446 22.1613C1.25633 22.2022 0.909421 22.1436 0.677315 22.0131ZM40.0673 22.0841C39.6679 21.9228 39.4592 21.5186 39.4592 20.9064C39.4592 20.5314 39.5617 20.3289 39.8927 20.0497C40.772 19.3081 41.9956 19.7429 41.9956 20.797C41.9956 21.4046 41.7941 21.7537 41.2938 22.013C40.8355 22.2506 40.5242 22.2686 40.0673 22.0841Z" fill="#F88500"/>
</g>
<defs>
<clipPath id="clip0_117_1156">
<rect width="42" height="42" fill="white"/>
</clipPath>
</defs>
</svg>
