<svg width="55" height="36" viewBox="0 0 55 36" fill="none" xmlns="http://www.w3.org/2000/svg">
<path d="M11.7629 34.9124C11.7866 34.7221 11.8469 34.4046 11.8969 34.2068C11.9468 34.009 11.9877 33.7514 11.9877 33.6343C11.9877 33.5173 12.0174 33.4032 12.0536 33.3808C12.0898 33.3584 12.1195 33.1986 12.1195 33.0256C12.1195 32.8527 12.1417 32.6892 12.1689 32.6624C12.2135 32.6183 12.3277 32.0331 12.4271 31.3389C12.4479 31.194 12.4857 31.0606 12.5113 31.0425C12.5368 31.0244 12.5933 30.7724 12.6367 30.4826C12.6801 30.1928 12.7315 29.8519 12.751 29.7251C12.7704 29.5983 12.8115 29.4353 12.8422 29.3628C12.895 29.2384 13.0185 28.5857 13.0853 28.0784C13.102 27.9516 13.1411 27.7885 13.1722 27.7161C13.2033 27.6436 13.2468 27.4806 13.2688 27.3538C13.4078 26.5536 13.4759 26.239 13.5193 26.1955C13.5464 26.1684 13.5683 26.0844 13.568 26.0089C13.5672 25.8119 13.7899 24.9536 13.8485 24.9276C13.8757 24.9155 13.8979 24.834 13.8979 24.7464C13.8979 24.6589 13.9244 24.5872 13.9567 24.5872C13.989 24.5872 14.034 24.5131 14.0567 24.4226C14.0795 24.332 14.1271 24.2579 14.1627 24.2579C14.1982 24.2579 14.2273 24.227 14.2273 24.1891C14.2273 24.1267 14.6019 23.6839 14.8044 23.5071C14.85 23.4672 15.0022 23.3234 15.1424 23.1875C15.2827 23.0517 15.417 22.9405 15.441 22.9405C15.465 22.9405 15.5645 22.8664 15.6622 22.7759C15.7598 22.6853 15.8746 22.6112 15.9173 22.6112C15.9599 22.6112 16.0047 22.5859 16.0167 22.5549C16.0417 22.4909 16.9588 21.9206 17.3561 21.7219C17.501 21.6495 17.6344 21.5754 17.6525 21.5573C17.6893 21.5205 18.1194 21.3115 19.0028 20.9012C19.3288 20.7497 19.6471 20.5983 19.71 20.5646C19.7729 20.5309 19.8692 20.5034 19.924 20.5034C19.9789 20.5034 20.0237 20.4737 20.0237 20.4375C20.0237 20.4013 20.0616 20.3716 20.1079 20.3716C20.1989 20.3716 20.7333 20.1029 21.2094 19.8178C21.3724 19.7202 21.5873 19.6057 21.6869 19.5634C21.7865 19.5211 21.8681 19.4633 21.8681 19.435C21.8681 19.4067 21.9131 19.3836 21.9682 19.3836C22.0232 19.3836 22.1857 19.3095 22.3291 19.2189C22.4726 19.1283 22.6337 19.0542 22.687 19.0542C22.8106 19.0542 22.9211 18.663 22.9216 18.2236L22.922 17.8869L24.1076 17.7113V17.3321C24.1076 16.8134 23.9888 16.2877 23.8716 16.2877C23.8203 16.2877 23.7783 16.2581 23.7783 16.2218C23.7783 16.1856 23.7484 16.156 23.7118 16.156C23.6086 16.156 23.2513 15.8153 23.2513 15.7169C23.2513 15.6686 23.2289 15.629 23.2015 15.629C23.1168 15.629 22.7902 14.8149 22.7902 14.6039C22.7902 14.5199 22.7606 14.4328 22.7244 14.4104C22.6881 14.3881 22.6585 14.1961 22.6585 13.9838C22.6585 13.5199 22.6158 13.3895 22.464 13.3895C22.2751 13.3895 21.9454 13.1956 21.8132 13.0067C21.661 12.7894 21.6116 12.5897 21.5368 11.8893C21.5048 11.5895 21.4568 11.309 21.4302 11.266C21.3806 11.1857 21.2948 10.7866 21.2306 10.3373C21.2096 10.1907 21.2252 10.0538 21.2678 10.0113C21.3081 9.97095 21.3411 9.89061 21.3411 9.83275C21.3411 9.77489 21.4597 9.61178 21.6046 9.47027C21.9012 9.18066 21.9032 9.17375 21.7755 8.88741C21.7245 8.77325 21.6325 8.53164 21.5709 8.3505C21.5093 8.16936 21.4337 7.96187 21.403 7.88941C21.2257 7.47127 21.2001 7.17644 21.2344 5.94627C21.2731 4.55708 21.3248 3.90919 21.4052 3.80551C21.4332 3.76929 21.4765 3.59954 21.5013 3.4283C21.526 3.25706 21.5742 3.0997 21.6084 3.0786C21.6425 3.0575 21.6704 2.96789 21.6704 2.87946C21.6704 2.79102 21.6969 2.71867 21.7292 2.71867C21.7615 2.71867 21.8064 2.64471 21.8291 2.55431C21.8518 2.46392 22.0107 2.24743 22.1821 2.07322C22.4903 1.76007 22.8621 1.59889 23.2762 1.59889C23.4131 1.59889 23.4309 1.56817 23.4309 1.33275C23.4309 1.14456 23.476 1.01868 23.5847 0.902949C23.7752 0.700184 24.2794 0.413243 24.4452 0.413243C24.5131 0.413243 24.5686 0.390537 24.5686 0.362784C24.5686 0.318484 25.1163 0.178153 25.8202 0.0421133C26.1744 -0.0263645 27.9781 -0.00719931 28.422 0.0697552C28.9315 0.158073 29.4406 0.275024 29.6076 0.342085C29.6801 0.371179 29.8515 0.443551 29.9886 0.502919C30.1257 0.562283 30.2813 0.610853 30.3344 0.610853C30.3876 0.610853 30.431 0.637037 30.431 0.66904C30.431 0.701042 30.4829 0.744645 30.5463 0.765934C30.758 0.83704 31.3589 1.27547 31.6925 1.60228C32.0022 1.9057 32.3934 2.60836 32.5157 3.08098C32.5345 3.15343 32.5742 3.272 32.604 3.34445C32.7457 3.68855 32.8352 4.96425 32.8352 6.63792C32.8352 7.61608 32.8204 8.56322 32.8023 8.74264C32.7705 9.05764 32.7762 9.07125 32.967 9.1368C33.2519 9.23471 33.4509 9.48967 33.5005 9.82059C33.5481 10.1379 33.4901 10.8709 33.3991 11.1017C33.3673 11.1826 33.2902 11.4266 33.2279 11.644C33.1657 11.8613 33.0889 12.0674 33.0573 12.1018C33.0257 12.1362 32.9999 12.23 32.9999 12.3104C32.9999 12.3907 32.9777 12.4662 32.9505 12.4783C32.9233 12.4904 32.8418 12.6188 32.7694 12.7638C32.6292 13.044 32.4273 13.252 32.2918 13.2556C32.2465 13.2568 32.2095 13.2906 32.2095 13.3308C32.2095 13.3746 32.1473 13.3882 32.0539 13.3647C31.9068 13.3278 31.896 13.3466 31.8586 13.7034C31.7818 14.4348 31.6721 15.0699 31.6118 15.1317C31.5782 15.1661 31.5508 15.2625 31.5508 15.3458C31.5508 15.4291 31.5211 15.4973 31.4849 15.4973C31.4487 15.4973 31.4189 15.5343 31.4187 15.5796C31.4183 15.6921 31.0285 16.1032 30.8205 16.2105C30.6622 16.2922 30.6544 16.3181 30.7018 16.6057C30.7297 16.775 30.7543 17.094 30.7564 17.3146L30.7603 17.7157L31.2379 17.799C31.5005 17.8448 31.7525 17.8931 31.7978 17.9063C31.8535 17.9226 31.8801 18.0791 31.8801 18.3904C31.8801 18.9556 31.9583 19.1385 32.2666 19.295C32.3982 19.3619 32.5207 19.432 32.5388 19.451C32.6309 19.5473 32.9418 19.7129 33.0305 19.7129C33.0861 19.7129 33.1316 19.7426 33.1316 19.7788C33.1316 19.815 33.1605 19.8447 33.1957 19.8447C33.2507 19.8447 33.8112 20.0811 34.1197 20.2344C34.2268 20.2876 35.4376 20.6647 35.8652 20.7779C36.0101 20.8163 36.188 20.8709 36.2604 20.8991C36.3329 20.9274 36.5404 21.0009 36.7215 21.0626C37.1904 21.2221 38.4411 21.7921 38.5329 21.8881C38.551 21.9071 38.6493 21.9757 38.7513 22.0407C39.0785 22.249 39.6419 22.7671 39.9491 23.142C40.1176 23.3477 40.3121 23.9 40.3117 24.1717C40.3115 24.2873 40.3379 24.3983 40.3703 24.4183C40.4027 24.4383 40.4441 24.566 40.4624 24.7021C40.5046 25.0165 40.6252 25.5033 40.7033 25.6741C40.7364 25.7465 40.7782 25.8948 40.7961 26.0034C40.862 26.4021 40.977 26.8627 41.0386 26.9741C41.0734 27.037 41.1018 27.1616 41.1018 27.2509C41.1018 27.3403 41.1293 27.4815 41.1629 27.5647C41.1966 27.6479 41.2731 27.9531 41.333 28.243C41.3929 28.5328 41.4692 28.8214 41.5024 28.8843C41.5357 28.9472 41.5629 29.0467 41.5629 29.1054C41.5629 29.2463 41.7596 30.117 41.8293 30.2849C41.8594 30.3574 41.8973 30.5204 41.9134 30.6472C41.9563 30.9839 42.0982 31.6476 42.16 31.7999C42.1894 31.8724 42.2271 32.0354 42.2438 32.1622C42.3106 32.6696 42.4341 33.3222 42.4869 33.4467C42.5511 33.5982 42.6233 34.2543 42.639 34.8299L42.6497 35.2251L11.7195 35.2583L11.7627 34.9124L11.7629 34.9124ZM43.3413 30.9648C43.3413 30.8496 43.314 30.6644 43.2808 30.5531C43.2187 30.3457 43.0877 29.7149 43.0334 29.3628C43.0167 29.2541 42.9791 29.1059 42.95 29.0334C42.9209 28.961 42.8455 28.6646 42.7826 28.3747C42.7196 28.0849 42.6455 27.7885 42.618 27.7161C42.5721 27.5956 42.3516 26.7288 42.2242 26.1681C42.0995 25.6195 42.0044 25.2711 41.9502 25.1645C41.9183 25.1016 41.8921 24.9816 41.8921 24.8978C41.8921 24.8139 41.8633 24.7166 41.8281 24.6814C41.7929 24.6462 41.7441 24.4022 41.7197 24.1392C41.6952 23.8761 41.6499 23.6453 41.619 23.6262C41.5881 23.6071 41.5628 23.5222 41.5628 23.4375C41.5628 23.1069 41.0812 22.3286 40.5418 21.7877C40.252 21.497 39.9457 21.2058 39.8611 21.1407C39.5668 20.9137 38.8592 20.5034 38.7622 20.5034C38.7085 20.5034 38.6646 20.4807 38.6646 20.453C38.6646 20.4001 38.1838 20.174 38.0713 20.174C38.0353 20.174 38.0059 20.1464 38.0059 20.1127C38.0059 20.079 37.9392 20.042 37.8577 20.0304C37.7624 20.0169 37.702 19.9564 37.6884 19.8611C37.6769 19.7796 37.6938 19.7129 37.7262 19.7129C37.7585 19.7129 37.8535 19.5756 37.9373 19.4078C38.0861 19.1099 38.6002 18.5273 38.7142 18.5273C38.7457 18.5273 38.8289 18.4743 38.8992 18.4096C38.9694 18.3448 39.1232 18.2523 39.2409 18.204L39.455 18.1161V17.4812C39.455 16.7702 39.4323 16.7325 38.9526 16.6459C38.8123 16.6206 38.6679 16.5795 38.6316 16.5547C38.5954 16.5298 38.3879 16.4557 38.1705 16.39C37.9532 16.3244 37.7072 16.2449 37.624 16.2133C37.5408 16.1818 37.4148 16.156 37.3441 16.156C37.2733 16.156 37.2154 16.1301 37.2154 16.0985C37.2154 16.0669 37.1032 16.0231 36.966 16.0012C36.8289 15.9793 36.5695 15.8867 36.3897 15.7955C36.2099 15.7042 36.0257 15.6295 35.9804 15.6293C35.9351 15.6293 35.8981 15.5994 35.8981 15.5632C35.8981 15.5269 35.9245 15.4973 35.9568 15.4973C35.9891 15.4973 36.0341 15.4232 36.0568 15.3326C36.0796 15.2421 36.1272 15.1679 36.1628 15.1679C36.1983 15.1679 36.2274 15.0938 36.2274 15.0033C36.2274 14.9127 36.257 14.8386 36.2933 14.8386C36.3295 14.8386 36.3591 14.7799 36.3591 14.7082C36.3591 14.6365 36.4073 14.4574 36.4662 14.3102C36.5911 13.9982 36.5515 13.908 36.3803 14.1146C35.9771 14.6013 35.2393 15.2533 35.2393 15.1231C35.2393 15.0898 35.2666 15.0344 35.2998 15C35.3984 14.898 35.898 13.9008 35.898 13.806C35.898 13.7581 35.9277 13.7188 35.9639 13.7188C36.0001 13.7188 36.0298 13.6862 36.0298 13.6464C36.0298 13.5761 36.1777 13.2085 36.2979 12.98C36.3729 12.8376 36.4935 12.3738 36.5339 12.0721C36.551 11.9453 36.5896 11.7823 36.6198 11.7098C36.6791 11.5678 36.8108 10.6499 36.894 9.7996C36.9223 9.50977 36.9734 9.09479 37.0075 8.87743C37.0416 8.66006 37.105 8.20062 37.1485 7.85645C37.1919 7.51228 37.2522 7.17141 37.2825 7.09895C37.3128 7.0265 37.3546 6.83383 37.3755 6.6708C37.4423 6.14914 37.5763 5.49754 37.6272 5.44662C37.6543 5.4195 37.6765 5.32774 37.6765 5.24272C37.6765 5.1577 37.7037 5.03666 37.7369 4.97375C37.7701 4.91085 37.9249 4.60002 38.081 4.28305C38.237 3.96608 38.3876 3.70669 38.4158 3.70669C38.4439 3.70669 38.4669 3.67294 38.4669 3.63169C38.4669 3.52979 39.1379 2.85377 39.2409 2.85192C39.2862 2.85107 39.3232 2.82727 39.3232 2.79898C39.3232 2.7707 39.4047 2.71258 39.5044 2.66982C39.604 2.62707 39.8452 2.50201 40.0404 2.39191C40.2357 2.28181 40.4357 2.19172 40.4851 2.19172C40.5344 2.19172 40.5747 2.16545 40.5747 2.13333C40.5747 2.10121 40.6563 2.05889 40.7559 2.03928C41.0692 1.97761 41.5239 1.84761 41.6821 1.77445C41.8937 1.6766 43.5865 1.68607 43.6861 1.78566C43.7283 1.82785 43.8304 1.86238 43.913 1.86238C44.0765 1.86238 44.4306 1.98575 44.9733 2.23175C45.1645 2.31842 45.3498 2.38933 45.385 2.38933C45.4202 2.38933 45.4491 2.41551 45.4491 2.44752C45.4491 2.47952 45.501 2.52208 45.5644 2.54209C45.9185 2.65389 46.8982 3.45741 46.8982 3.63611C46.8982 3.66976 46.936 3.73646 46.9822 3.78434C47.1467 3.95485 47.6837 5.13512 47.7277 5.4229C47.7523 5.58395 47.7949 5.74536 47.8223 5.78159C47.8497 5.81782 47.888 5.98084 47.9074 6.14387C47.9268 6.3069 47.9918 6.72187 48.0517 7.06604C48.2031 7.93486 48.4006 9.2755 48.5468 10.4254C48.6782 11.4596 48.8349 12.2646 48.9472 12.4829C48.9795 12.5458 49.0062 12.6495 49.0064 12.7134C49.0066 12.7773 49.0511 12.9145 49.1052 13.0182C49.1593 13.122 49.2036 13.248 49.2036 13.2982C49.2036 13.3484 49.2332 13.3895 49.2695 13.3895C49.3057 13.3895 49.3353 13.4261 49.3353 13.4709C49.3353 13.5156 49.4139 13.7157 49.5099 13.9155C49.6059 14.1153 49.7615 14.4417 49.8557 14.641C49.9499 14.8402 50.0558 15.0239 50.0909 15.0491C50.1261 15.0743 50.1363 15.1134 50.1137 15.1361C50.05 15.1997 49.3917 14.6054 48.9794 14.1122L48.7881 13.8834L48.8352 14.1469C48.9213 14.6296 49.1387 15.2031 49.2721 15.2996C49.2971 15.3177 49.3384 15.3994 49.3639 15.4811C49.3986 15.5922 49.3801 15.6396 49.2905 15.6694C49.2246 15.6912 49.0425 15.7664 48.8859 15.8363C48.7292 15.9063 48.5137 15.981 48.4069 16.0024C48.3002 16.0237 48.1969 16.067 48.1774 16.0986C48.1579 16.1301 48.0691 16.1559 47.9802 16.1559C47.8913 16.1559 47.7671 16.1831 47.7042 16.2164C47.5832 16.2803 46.7223 16.5559 46.2636 16.6775C45.8622 16.784 45.8381 16.8392 45.8878 17.5392C45.9301 18.1352 45.9362 18.1533 46.1183 18.222C46.2212 18.2608 46.3053 18.3158 46.3053 18.3441C46.3053 18.3723 46.3369 18.3955 46.3756 18.3955C46.454 18.3955 46.859 18.6868 47.0623 18.8895C47.135 18.962 47.2538 19.1394 47.3263 19.2837C47.3987 19.4281 47.4951 19.5858 47.5403 19.6342C47.5856 19.6827 47.6227 19.7454 47.6227 19.7737C47.6227 19.8954 48.0261 20.2319 48.2586 20.3042C48.5159 20.3842 48.7658 20.4882 49.2324 20.7096C49.375 20.7773 49.5306 20.8326 49.5782 20.8326C49.6257 20.8326 49.6646 20.8617 49.6646 20.8973C49.6646 20.9328 49.7387 20.9805 49.8293 21.0032C49.9198 21.0259 49.994 21.0668 49.994 21.0939C49.994 21.1668 50.6443 21.4913 50.7904 21.4913C50.8596 21.4913 50.9161 21.5142 50.9161 21.5422C50.9161 21.5991 51.4103 21.7445 51.7893 21.799C51.9254 21.8186 52.0531 21.8611 52.0731 21.8935C52.0931 21.9259 52.1832 21.9524 52.2732 21.9524C52.3633 21.9524 52.6357 22.001 52.8786 22.0603C53.3563 22.177 53.969 22.5694 54.0444 22.8071C54.0677 22.8805 54.1143 22.9405 54.1481 22.9405C54.1819 22.9405 54.2096 22.9849 54.2096 23.0393C54.2096 23.0936 54.2318 23.1383 54.259 23.1385C54.3236 23.1391 54.5389 23.5186 54.5389 23.6319C54.5389 23.6803 54.5735 23.7315 54.6158 23.7456C54.6968 23.7725 54.7688 24.8556 54.8426 27.1561C54.8641 27.8264 54.9083 28.4029 54.9408 28.4373C54.9734 28.4717 55 29.1016 55 29.837V31.1742H43.3411L43.3413 30.9648ZM0.130995 30.0912C0.130995 29.9303 0.101354 29.7804 0.0651257 29.758C-0.0171583 29.7072 -0.0236333 28.1291 0.0580836 28.0421C0.0904386 28.0077 0.134578 27.6387 0.156176 27.222C0.198753 26.4006 0.331771 25.4173 0.410939 25.3388C0.43811 25.3119 0.460341 25.2188 0.460341 25.1321C0.460341 24.9625 0.628321 24.3641 0.728574 24.1764C0.762187 24.1135 0.78969 24.0196 0.78969 23.9677C0.78969 23.9158 0.832868 23.7894 0.885641 23.6869C0.938415 23.5843 1.01975 23.404 1.06639 23.2863C1.11303 23.1686 1.16835 23.0722 1.18931 23.0722C1.21027 23.0722 1.29562 22.9357 1.37896 22.7688C1.56946 22.3873 2.38393 21.5568 2.73284 21.3882C2.87775 21.3181 3.0062 21.2386 3.01827 21.2114C3.03035 21.1842 3.06755 21.162 3.10093 21.162C3.13432 21.162 3.31524 21.0879 3.50299 20.9973C3.69073 20.9068 3.88325 20.8327 3.93081 20.8327C3.97838 20.8327 4.01729 20.8034 4.01729 20.7676C4.01729 20.7318 4.13651 20.6834 4.28223 20.6601C4.42794 20.6368 4.56308 20.592 4.58252 20.5605C4.60197 20.5291 4.67582 20.5033 4.74663 20.5033C4.81744 20.5033 4.92685 20.4774 4.98975 20.4457C5.05266 20.4139 5.28198 20.3344 5.49935 20.2689C5.71671 20.2035 5.9242 20.1319 5.96043 20.1099C5.99666 20.0879 6.19674 20.0144 6.40505 19.9465C6.61336 19.8787 6.7838 19.7984 6.7838 19.7681C6.7838 19.7377 6.85049 19.7119 6.932 19.7108C7.01352 19.7097 7.13775 19.6652 7.20807 19.612C7.27839 19.5588 7.38954 19.5153 7.45508 19.5153C7.52061 19.5153 7.57423 19.4856 7.57423 19.4494C7.57423 19.4132 7.61909 19.3835 7.67393 19.3835C7.72877 19.3835 7.8251 19.3553 7.888 19.3209C7.95091 19.2864 8.12094 19.2064 8.26586 19.1432C8.41077 19.0799 8.54416 19.0109 8.56227 18.9899C8.58038 18.9689 8.72859 18.8941 8.89162 18.8237C9.05464 18.7532 9.20285 18.6799 9.22096 18.6608C9.26387 18.6155 9.94447 18.2865 10.0937 18.2388C10.1571 18.2186 10.209 18.1418 10.209 18.0682C10.209 17.9946 10.2357 17.9344 10.2682 17.9344C10.3008 17.9344 10.3434 17.8084 10.3628 17.6545C10.3822 17.5005 10.4464 17.1374 10.5053 16.8476C10.7 15.8901 10.6998 15.9188 10.5121 15.7163C10.4179 15.6147 10.3407 15.4942 10.3407 15.4485C10.3407 15.4028 10.3143 15.3655 10.282 15.3655C10.2497 15.3655 10.2047 15.2914 10.182 15.2008C10.1592 15.1103 10.1116 15.0361 10.076 15.0361C10.0405 15.0361 10.0114 14.9917 10.0114 14.9373C10.0114 14.883 9.98176 14.8385 9.94553 14.8385C9.9093 14.8385 9.87966 14.7912 9.87966 14.7334C9.87966 14.6756 9.83779 14.5497 9.7866 14.4535C9.60931 14.1204 9.41316 13.6423 9.37452 13.449C9.35316 13.3423 9.30988 13.239 9.27833 13.2195C9.24678 13.2 9.22097 13.1088 9.22097 13.0169C9.22097 12.925 9.1744 12.6896 9.11749 12.4938C9.02363 12.171 8.99661 12.1379 8.82693 12.1379C8.62163 12.1379 8.32096 11.8419 8.26971 11.5894C8.14688 10.9842 8.09485 10.4746 8.08254 9.75643C8.06718 8.86034 8.07045 8.85066 8.47069 8.60899C8.57452 8.54631 8.57808 8.51464 8.50194 8.3308C8.38096 8.03874 8.36169 5.13285 8.47993 5.01428C8.52522 4.96889 8.56227 4.88113 8.56227 4.81927C8.56227 4.41892 9.46415 3.3129 10.0608 2.98152C10.2148 2.896 10.3407 2.80506 10.3407 2.77944C10.3407 2.75381 10.4148 2.71423 10.5054 2.6915C10.596 2.66877 10.6701 2.6211 10.6701 2.58555C10.6701 2.55002 10.7146 2.52094 10.7689 2.52094C10.8232 2.52094 10.8677 2.4933 10.8677 2.45951C10.8677 2.42572 10.9218 2.38093 10.9878 2.35995C11.0539 2.33899 11.1659 2.2703 11.2368 2.20731C11.3077 2.14432 11.4685 2.03499 11.5942 1.96435C11.7199 1.89372 11.8821 1.78014 11.9545 1.71196C12.027 1.64379 12.1382 1.55975 12.2016 1.5252C12.3036 1.46959 12.3168 1.49661 12.3168 1.76113C12.3168 1.92543 12.332 2.05986 12.3505 2.05986C12.3691 2.05986 12.6978 1.74633 13.0809 1.36309C13.4641 0.979891 13.7961 0.68477 13.8186 0.707225C13.841 0.72968 13.8669 0.939256 13.876 1.1729C13.8851 1.40655 13.9305 1.66464 13.977 1.74643L14.0614 1.89515L14.0827 1.71401C14.1072 1.50582 14.2283 1.48284 14.5145 1.63208C14.6183 1.6862 14.7442 1.73048 14.7944 1.73048C14.8446 1.73048 14.8857 1.75359 14.8857 1.78185C14.8857 1.8101 15.0339 1.89073 15.2151 1.96102C15.3962 2.03131 15.5444 2.1053 15.5444 2.12543C15.5444 2.14556 15.6775 2.22055 15.8402 2.29207C16.0029 2.36359 16.1363 2.44434 16.1366 2.47151C16.1369 2.49868 16.1676 2.52091 16.2047 2.52091C16.2884 2.52091 17.15 3.05719 17.1802 3.12803C17.1923 3.1564 17.2389 3.1796 17.2838 3.1796C17.4289 3.1796 18.1623 3.9477 18.2901 4.23351C18.3144 4.28785 18.3515 4.34714 18.3726 4.36525C18.4531 4.43454 18.6409 5.06649 18.6406 5.26707C18.6404 5.38267 18.6738 5.49798 18.7148 5.52331C18.788 5.56853 18.7682 6.6093 18.6666 8.05394L18.6272 8.61383L18.8643 8.73948C18.9947 8.80858 19.1014 8.90492 19.1014 8.95355C19.1014 9.00219 19.1277 9.04198 19.1598 9.04198C19.2656 9.04198 19.2963 9.58941 19.2356 10.3923C19.2027 10.827 19.1558 11.2782 19.1314 11.395C19.0783 11.6488 18.8061 11.9402 18.6221 11.9402C18.4597 11.9402 18.3158 12.1191 18.313 12.3246C18.3102 12.536 18.092 13.3513 18.0311 13.3784C18.0039 13.3905 17.9816 13.4663 17.9816 13.547C17.9816 13.6276 17.9381 13.7511 17.8849 13.8214C17.8317 13.8917 17.7872 13.9839 17.7861 14.0262C17.7807 14.2226 17.103 15.2546 16.6153 15.8091C16.5107 15.928 16.4917 16.0231 16.5168 16.3031C16.5339 16.4939 16.5741 16.6781 16.6061 16.7125C16.638 16.7469 16.6642 16.8781 16.6642 17.0041C16.6642 17.1301 16.7131 17.4432 16.7728 17.7L16.8814 18.1667L17.8102 18.6249C18.3211 18.877 18.838 19.1404 18.9588 19.2103L19.1785 19.3373L18.9258 19.4306C18.7869 19.4819 18.6213 19.5403 18.5579 19.5602C18.4945 19.5802 18.4426 19.6227 18.4426 19.6547C18.4426 19.6867 18.3685 19.7129 18.2779 19.7129C18.1874 19.7129 18.1133 19.7425 18.1133 19.7787C18.1133 19.815 18.0762 19.8453 18.0309 19.8461C17.9857 19.8469 17.7708 19.9352 17.5534 20.0422C17.336 20.1493 17.1211 20.2375 17.0758 20.2383C17.0305 20.2391 16.9935 20.2622 16.9935 20.2896C16.9935 20.317 16.8972 20.3803 16.7794 20.4303C16.6617 20.4803 16.3808 20.6358 16.1553 20.7758C15.9297 20.9157 15.726 21.0303 15.7026 21.0303C15.656 21.0303 14.9402 21.5348 14.7082 21.7312C14.6287 21.7985 14.4805 21.9196 14.3788 22.0002C14.0413 22.2681 13.8003 22.5085 13.5025 22.8746C13.3404 23.0738 13.1926 23.2517 13.1739 23.2698C13.1553 23.2879 13.1078 23.362 13.0683 23.4345C13.0288 23.5069 12.9189 23.7058 12.8241 23.8765C12.6089 24.2636 12.3167 25.1 12.3167 25.3289C12.3167 25.4234 12.2877 25.5772 12.2522 25.6706C12.2167 25.764 12.1547 26.0253 12.1145 26.2513C12.0347 26.6995 11.9822 26.9498 11.8216 27.6501C11.7634 27.9037 11.6898 28.2298 11.6581 28.3747C11.6263 28.5196 11.5525 28.8457 11.494 29.0993C11.4355 29.3529 11.3638 29.6937 11.3346 29.8568C11.2296 30.444 11.8791 30.3837 5.65691 30.3837H0.130933L0.130995 30.0912Z" fill="#F88500"/>
</svg>
