<svg width="17" height="13" viewBox="0 0 17 13" fill="none" xmlns="http://www.w3.org/2000/svg">
<path d="M14.8553 3.241C14.8655 3.38313 14.8655 3.52529 14.8655 3.66741C14.8655 8.00241 11.566 12.9973 5.53553 12.9973C3.67766 12.9973 1.95178 12.4593 0.5 11.5253C0.763969 11.5557 1.01775 11.5659 1.29188 11.5659C2.82484 11.5659 4.23603 11.0481 5.36294 10.1649C3.92131 10.1344 2.71319 9.19025 2.29694 7.89075C2.5 7.92119 2.70303 7.9415 2.91625 7.9415C3.21066 7.9415 3.50509 7.90088 3.77919 7.82985C2.27666 7.52525 1.14972 6.20547 1.14972 4.61157V4.57097C1.58625 4.81463 2.09391 4.96691 2.63194 4.98719C1.74869 4.39835 1.17003 3.39329 1.17003 2.25622C1.17003 1.6471 1.33244 1.08872 1.61672 0.60141C3.23094 2.59125 5.65734 3.89072 8.37813 4.03288C8.32738 3.78922 8.29691 3.53544 8.29691 3.28163C8.29691 1.4745 9.75884 0.00244141 11.5761 0.00244141C12.5203 0.00244141 13.373 0.398379 13.972 1.03797C14.7131 0.895848 15.4238 0.621723 16.0533 0.246098C15.8096 1.00754 15.2918 1.64713 14.6116 2.05319C15.2715 1.98216 15.9111 1.79938 16.4999 1.5456C16.0533 2.19532 15.4949 2.77397 14.8553 3.241Z" fill="white" fill-opacity="0.5"/>
</svg>
