<svg width="16" height="14" viewBox="0 0 16 14" fill="none" xmlns="http://www.w3.org/2000/svg">
<path d="M14.3554 3.67192C14.3655 3.81405 14.3655 3.95621 14.3655 4.09833C14.3655 8.43335 11.066 13.4283 5.03555 13.4283C3.17767 13.4283 1.45179 12.8902 0 11.9562C0.26397 11.9867 0.517752 11.9968 0.791878 11.9968C2.32485 11.9968 3.73605 11.4791 4.86296 10.5958C3.42133 10.5654 2.2132 9.6212 1.79694 8.32169C2.00001 8.35213 2.20304 8.37244 2.41626 8.37244C2.71067 8.37244 3.00511 8.33182 3.2792 8.26079C1.77666 7.95619 0.649721 6.63641 0.649721 5.04249V5.0019C1.08625 5.24556 1.59391 5.39784 2.13195 5.41812C1.24869 4.82927 0.670034 3.82421 0.670034 2.68714C0.670034 2.07801 0.832441 1.51964 1.11672 1.03232C2.73095 3.02217 5.15736 4.32165 7.87816 4.4638C7.82741 4.22015 7.79694 3.96636 7.79694 3.71255C7.79694 1.90542 9.25888 0.43335 11.0761 0.43335C12.0203 0.43335 12.8731 0.829289 13.4721 1.46888C14.2132 1.32676 14.9238 1.05263 15.5533 0.677007C15.3096 1.43845 14.7919 2.07804 14.1117 2.48411C14.7716 2.41308 15.4112 2.23029 16 1.97651C15.5534 2.62623 14.995 3.20489 14.3554 3.67192Z" fill="#6F7A8B" fill-opacity="0.75"/>
</svg>
