<svg width="16" height="19" viewBox="0 0 16 19" fill="none" xmlns="http://www.w3.org/2000/svg">
<path d="M14.3553 6.23856C14.3655 6.38069 14.3655 6.52284 14.3655 6.66497C14.3655 11 11.066 15.9949 5.03553 15.9949C3.17766 15.9949 1.45178 15.4568 0 14.5228C0.263969 14.5533 0.51775 14.5634 0.791875 14.5634C2.32484 14.5634 3.73603 14.0457 4.86294 13.1624C3.42131 13.132 2.21319 12.1878 1.79694 10.8883C2 10.9187 2.20303 10.9391 2.41625 10.9391C2.71066 10.9391 3.00509 10.8984 3.27919 10.8274C1.77666 10.5228 0.649719 9.20303 0.649719 7.60913V7.56853C1.08625 7.81219 1.59391 7.96447 2.13194 7.98475C1.24869 7.39591 0.670031 6.39084 0.670031 5.25378C0.670031 4.64466 0.832438 4.08628 1.11672 3.59897C2.73094 5.58881 5.15734 6.88828 7.87813 7.03044C7.82738 6.78678 7.79691 6.533 7.79691 6.27919C7.79691 4.47206 9.25884 3 11.0761 3C12.0203 3 12.873 3.39594 13.472 4.03553C14.2131 3.89341 14.9238 3.61928 15.5533 3.24366C15.3096 4.00509 14.7918 4.64469 14.1116 5.05075C14.7715 4.97972 15.4111 4.79694 15.9999 4.54316C15.5533 5.19287 14.9949 5.77153 14.3553 6.23856Z" fill="white" fill-opacity="0.75"/>
</svg>
