<svg width="18" height="19" viewBox="0 0 18 19" fill="none" xmlns="http://www.w3.org/2000/svg">
<path d="M17.5898 4.67703C17.7134 4.30848 17.5898 4.03723 16.995 4.03723H15.0268C14.5256 4.03723 14.295 4.27016 14.1714 4.52961C14.1714 4.52961 13.1689 6.6849 11.7521 8.08244C11.2943 8.48637 11.0838 8.6161 10.8332 8.6161C10.7096 8.6161 10.5191 8.48637 10.5191 8.11782V4.67703C10.5191 4.23477 10.3788 4.03723 9.96442 4.03723H6.87017C6.55607 4.03723 6.36894 4.24362 6.36894 4.43527C6.36894 4.85394 7.07734 4.95124 7.15086 6.1306V8.68981C7.15086 9.25001 7.03724 9.3532 6.78663 9.3532C6.11833 9.3532 4.49435 7.18907 3.53199 4.71242C3.33818 4.23183 3.14771 4.03723 2.64314 4.03723H0.674987C0.113612 4.03723 0 4.27016 0 4.52961C0 4.98957 0.668304 7.27458 3.11096 10.2937C4.73828 12.3547 7.03056 13.4721 9.11567 13.4721C10.3687 13.4721 10.5225 13.2245 10.5225 12.7969C10.5225 10.8274 10.4088 10.6417 11.037 10.6417C11.3278 10.6417 11.829 10.7714 12.9985 11.765C14.3351 12.9444 14.5557 13.4721 15.3042 13.4721H17.2723C17.8337 13.4721 18.1177 13.2245 17.954 12.735C17.5797 11.706 15.0502 9.58907 14.9366 9.44755C14.6459 9.11733 14.7294 8.96991 14.9366 8.67507C14.9399 8.67212 17.3425 5.68834 17.5898 4.67703Z" fill="white" fill-opacity="0.75"/>
</svg>
