<svg width="19" height="11" viewBox="0 0 19 11" fill="none" xmlns="http://www.w3.org/2000/svg">
<path d="M18.0898 1.42227C18.2134 1.05372 18.0898 0.782471 17.495 0.782471H15.5268C15.0256 0.782471 14.795 1.01539 14.6714 1.27485C14.6714 1.27485 13.6689 3.43014 12.2521 4.82768C11.7943 5.23161 11.5838 5.36134 11.3332 5.36134C11.2096 5.36134 11.0191 5.23161 11.0191 4.86306V1.42227C11.0191 0.980014 10.8788 0.782471 10.4644 0.782471H7.37017C7.05607 0.782471 6.86894 0.988859 6.86894 1.1805C6.86894 1.59918 7.57734 1.69648 7.65086 2.87584V5.43505C7.65086 5.99524 7.53724 6.09844 7.28663 6.09844C6.61833 6.09844 4.99435 3.93431 4.03199 1.45765C3.83818 0.977065 3.64771 0.782471 3.14314 0.782471H1.17499C0.613612 0.782471 0.5 1.01539 0.5 1.27485C0.5 1.7348 1.1683 4.01982 3.61096 7.03898C5.23828 9.09991 7.53056 10.2174 9.61567 10.2174C10.8687 10.2174 11.0225 9.96969 11.0225 9.54217C11.0225 7.57264 10.9088 7.38689 11.537 7.38689C11.8278 7.38689 12.329 7.51662 13.4985 8.51023C14.8351 9.68959 15.0557 10.2174 15.8042 10.2174H17.7723C18.3337 10.2174 18.6177 9.96969 18.454 9.48025C18.0797 8.45126 15.5502 6.33431 15.4366 6.19279C15.1459 5.86257 15.2294 5.71515 15.4366 5.42031C15.4399 5.41736 17.8425 2.43358 18.0898 1.42227Z" fill="white"/>
</svg>
