<svg width="40" height="40" viewBox="0 0 40 40" fill="none" xmlns="http://www.w3.org/2000/svg">
<g clip-path="url(#clip0_111_122)">
<path d="M20 0C16.1238 0 12.3639 1.11055 9.12641 3.21148C8.77273 3.44102 8.67219 3.91367 8.90164 4.26734C9.13117 4.62102 9.60383 4.72148 9.9575 4.49211C12.9469 2.55219 16.4195 1.52672 20 1.52672C30.1862 1.52672 38.4733 9.81383 38.4733 20C38.4733 30.1862 30.1862 38.4733 20 38.4733C9.81383 38.4733 1.52672 30.1862 1.52672 20C1.52672 14.8057 3.73273 9.82156 7.57906 6.3257C7.89102 6.04211 7.91398 5.55937 7.63047 5.24734C7.34687 4.93531 6.86414 4.91227 6.55211 5.19594C2.3882 8.98055 0 14.3764 0 20C0 31.0281 8.97187 40 20 40C31.0281 40 40 31.0281 40 20C40 8.97187 31.0281 0 20 0Z" fill="#F88500"/>
<path d="M33.587 10.928C33.3527 10.5777 32.8785 10.4834 32.5282 10.718C32.1777 10.9523 32.0838 11.4265 32.3182 11.7769C33.9477 14.2128 34.8091 17.0562 34.8091 20C34.8091 28.1658 28.1657 34.8091 19.9999 34.8091C11.8341 34.8091 5.19078 28.1658 5.19078 20C5.19078 11.8342 11.8341 5.19084 19.9999 5.19084C23.8953 5.19084 27.5736 6.691 30.3571 9.41498C30.6585 9.70998 31.1419 9.70467 31.4366 9.40334C31.7316 9.10209 31.7263 8.61873 31.4249 8.32389C28.3543 5.31897 24.297 3.66412 19.9999 3.66412C10.9923 3.66412 3.66406 10.9923 3.66406 20C3.66406 29.0076 10.9923 36.3358 19.9999 36.3358C29.0076 36.3358 36.3358 29.0076 36.3358 20C36.3358 16.753 35.3852 13.6158 33.587 10.928Z" fill="#F88500"/>
<path d="M20.0002 8.34607C17.4846 8.34607 15.0892 9.13498 13.0729 10.6276C12.734 10.8785 12.6627 11.3565 12.9135 11.6953C13.1645 12.0344 13.6425 12.1056 13.9812 11.8547C15.7327 10.5581 17.8141 9.87279 20.0002 9.87279C25.5844 9.87279 30.1274 14.4159 30.1274 20C30.1274 24.6576 26.9762 28.698 22.4641 29.8254C22.0551 29.9277 21.8064 30.3421 21.9086 30.7511C21.9953 31.0981 22.3066 31.3297 22.6487 31.3297C22.7099 31.3297 22.7723 31.3222 22.8345 31.3068C28.0274 30.009 31.6542 25.3595 31.6542 20C31.6542 13.5739 26.4263 8.34607 20.0002 8.34607Z" fill="#F88500"/>
<path d="M13.5934 27.8439C11.2286 25.9102 9.87242 23.0512 9.87242 20C9.87242 17.8885 10.5155 15.8655 11.7322 14.1496C11.9761 13.8057 11.8949 13.3292 11.551 13.0854C11.2072 12.8414 10.7306 12.9227 10.4868 13.2666C9.08601 15.242 8.3457 17.5704 8.3457 20C8.3457 23.511 9.90609 26.8008 12.627 29.0258C12.7688 29.1417 12.9398 29.1982 13.1098 29.1982C13.3309 29.1982 13.5502 29.1027 13.7011 28.9181C13.968 28.5917 13.9197 28.1107 13.5934 27.8439Z" fill="#F88500"/>
<path d="M26.616 19.2366C26.1943 19.2366 25.8527 19.5783 25.8527 20C25.8527 23.2271 23.2273 25.8524 20.0002 25.8524C16.7731 25.8524 14.1478 23.2271 14.1478 20C14.1478 16.7729 16.7731 14.1476 20.0002 14.1476C20.422 14.1476 20.7636 13.8059 20.7636 13.3842C20.7636 12.9626 20.422 12.6208 20.0002 12.6208C15.9313 12.6208 12.6211 15.9311 12.6211 20C12.6211 24.0689 15.9313 27.3791 20.0002 27.3791C24.0691 27.3791 27.3794 24.0689 27.3794 20C27.3794 19.5783 27.0377 19.2366 26.616 19.2366Z" fill="#F88500"/>
<path d="M19.9998 16.8957C18.2882 16.8957 16.8955 18.2883 16.8955 20C16.8955 21.7116 18.2882 23.1043 19.9998 23.1043C21.7114 23.1043 23.1041 21.7116 23.1041 20C23.1041 18.2883 21.7114 16.8957 19.9998 16.8957ZM19.9998 21.5776C19.1299 21.5776 18.4222 20.8699 18.4222 20C18.4222 19.1301 19.1299 18.4224 19.9998 18.4224C20.8697 18.4224 21.5774 19.1301 21.5774 20C21.5774 20.8699 20.8697 21.5776 19.9998 21.5776Z" fill="#F88500"/>
</g>
<defs>
<clipPath id="clip0_111_122">
<rect width="40" height="40" fill="white"/>
</clipPath>
</defs>
</svg>
