<svg width="18" height="17" viewBox="0 0 18 17" fill="none" xmlns="http://www.w3.org/2000/svg">
<path d="M9.00179 4.43063C6.73036 4.43063 4.89822 6.2475 4.89822 8.5C4.89822 10.7525 6.73036 12.5694 9.00179 12.5694C11.2732 12.5694 13.1054 10.7525 13.1054 8.5C13.1054 6.2475 11.2732 4.43063 9.00179 4.43063ZM9.00179 11.1456C7.53394 11.1456 6.33394 9.95917 6.33394 8.5C6.33394 7.04083 7.53036 5.85438 9.00179 5.85438C10.4732 5.85438 11.6697 7.04083 11.6697 8.5C11.6697 9.95917 10.4697 11.1456 9.00179 11.1456ZM14.2304 4.26417C14.2304 4.79188 13.8018 5.21333 13.2732 5.21333C12.7411 5.21333 12.3161 4.78833 12.3161 4.26417C12.3161 3.74 12.7447 3.315 13.2732 3.315C13.8018 3.315 14.2304 3.74 14.2304 4.26417ZM16.9482 5.2275C16.8875 3.95604 16.5946 2.82979 15.6554 1.90188C14.7197 0.973958 13.5839 0.683542 12.3018 0.619792C10.9804 0.545417 7.01965 0.545417 5.69822 0.619792C4.41965 0.68 3.28394 0.970417 2.34465 1.89833C1.40537 2.82625 1.11608 3.9525 1.05179 5.22396C0.976794 6.53438 0.976794 10.4621 1.05179 11.7725C1.11251 13.044 1.40537 14.1702 2.34465 15.0981C3.28394 16.026 4.41608 16.3165 5.69822 16.3802C7.01965 16.4546 10.9804 16.4546 12.3018 16.3802C13.5839 16.32 14.7197 16.0296 15.6554 15.0981C16.5911 14.1702 16.8839 13.044 16.9482 11.7725C17.0232 10.4621 17.0232 6.53792 16.9482 5.2275ZM15.2411 13.1785C14.9625 13.8727 14.4232 14.4075 13.7197 14.6873C12.6661 15.1017 10.1661 15.006 9.00179 15.006C7.83751 15.006 5.33394 15.0981 4.28394 14.6873C3.58394 14.411 3.04465 13.8763 2.76251 13.1785C2.34465 12.1338 2.44108 9.65458 2.44108 8.5C2.44108 7.34542 2.34822 4.86271 2.76251 3.82146C3.04108 3.12729 3.58037 2.5925 4.28394 2.31271C5.33751 1.89833 7.83751 1.99396 9.00179 1.99396C10.1661 1.99396 12.6697 1.90188 13.7197 2.31271C14.4197 2.58896 14.9589 3.12375 15.2411 3.82146C15.6589 4.86625 15.5625 7.34542 15.5625 8.5C15.5625 9.65458 15.6589 12.1373 15.2411 13.1785Z" fill="white" fill-opacity="0.5"/>
</svg>
