<svg width="16" height="19" viewBox="0 0 16 19" fill="none" xmlns="http://www.w3.org/2000/svg">
<g clip-path="url(#clip0_321_360)">
<path d="M8.00356 5.42716C5.73214 5.42716 3.89999 7.24404 3.89999 9.49654C3.89999 11.749 5.73214 13.5659 8.00356 13.5659C10.275 13.5659 12.1071 11.749 12.1071 9.49654C12.1071 7.24404 10.275 5.42716 8.00356 5.42716ZM8.00356 12.1422C6.53571 12.1422 5.33571 10.9557 5.33571 9.49654C5.33571 8.03737 6.53214 6.85091 8.00356 6.85091C9.47499 6.85091 10.6714 8.03737 10.6714 9.49654C10.6714 10.9557 9.47142 12.1422 8.00356 12.1422ZM13.2321 5.2607C13.2321 5.78841 12.8036 6.20987 12.275 6.20987C11.7428 6.20987 11.3178 5.78487 11.3178 5.2607C11.3178 4.73654 11.7464 4.31154 12.275 4.31154C12.8036 4.31154 13.2321 4.73654 13.2321 5.2607ZM15.95 6.22404C15.8893 4.95258 15.5964 3.82633 14.6571 2.89841C13.7214 1.97049 12.5857 1.68008 11.3036 1.61633C9.98213 1.54195 6.02142 1.54195 4.69999 1.61633C3.42142 1.67654 2.28571 1.96695 1.34642 2.89487C0.407136 3.82279 0.11785 4.94904 0.0535644 6.2205C-0.0214355 7.53091 -0.0214355 11.4586 0.0535644 12.769C0.114279 14.0405 0.407136 15.1667 1.34642 16.0947C2.28571 17.0226 3.41785 17.313 4.69999 17.3767C6.02142 17.4511 9.98213 17.4511 11.3036 17.3767C12.5857 17.3165 13.7214 17.0261 14.6571 16.0947C15.5928 15.1667 15.8857 14.0405 15.95 12.769C16.025 11.4586 16.025 7.53445 15.95 6.22404ZM14.2428 14.1751C13.9643 14.8692 13.425 15.404 12.7214 15.6838C11.6678 16.0982 9.16785 16.0026 8.00356 16.0026C6.83928 16.0026 4.33571 16.0947 3.28571 15.6838C2.58571 15.4076 2.04642 14.8728 1.76428 14.1751C1.34642 13.1303 1.44285 10.6511 1.44285 9.49654C1.44285 8.34195 1.34999 5.85925 1.76428 4.818C2.04285 4.12383 2.58214 3.58904 3.28571 3.30924C4.33928 2.89487 6.83928 2.99049 8.00356 2.99049C9.16785 2.99049 11.6714 2.89841 12.7214 3.30924C13.4214 3.58549 13.9607 4.12029 14.2428 4.818C14.6607 5.86279 14.5643 8.34195 14.5643 9.49654C14.5643 10.6511 14.6607 13.1338 14.2428 14.1751Z" fill="#6F7A8B" fill-opacity="0.75"/>
</g>
<defs>
<clipPath id="clip0_321_360">
<rect width="16" height="18.1333" fill="white" transform="translate(0 0.43335)"/>
</clipPath>
</defs>
</svg>
