<svg width="122" height="30" viewBox="0 0 122 30" fill="none" xmlns="http://www.w3.org/2000/svg">
<g opacity="0.5">
<path fill-rule="evenodd" clip-rule="evenodd" d="M10 0H0V10C0 12.7614 2.23858 15 5 15H15V5C15 2.23858 12.7614 0 10 0ZM10 2H2V10C2 11.6569 3.34315 13 5 13H13V5C13 3.34315 11.6569 2 10 2Z" fill="white"/>
<path d="M27.134 1.947H29.701L30.959 5.806L32.217 1.947H34.801L32.744 7.557L33.968 10.77L36.994 1.93H40.037L35.328 14H32.914L30.959 9.274L29.021 14H26.59L21.898 1.93H24.924L27.967 10.77L29.157 7.557L27.134 1.947ZM45.9078 14.102C45.0012 14.102 44.1795 13.932 43.4428 13.592C42.7175 13.2407 42.0885 12.776 41.5558 12.198C41.0345 11.6087 40.6322 10.9513 40.3488 10.226C40.0655 9.48933 39.9238 8.73 39.9238 7.948C39.9238 7.14333 40.0712 6.37833 40.3658 5.653C40.6718 4.92767 41.0912 4.28167 41.6238 3.715C42.1678 3.137 42.8082 2.68367 43.5448 2.355C44.2815 2.02633 45.0862 1.862 45.9588 1.862C46.8542 1.862 47.6645 2.03767 48.3898 2.389C49.1265 2.729 49.7555 3.19367 50.2768 3.783C50.8095 4.37233 51.2175 5.03533 51.5008 5.772C51.7842 6.49733 51.9258 7.23967 51.9258 7.999C51.9258 8.80367 51.7785 9.56867 51.4838 10.294C51.1892 11.0193 50.7698 11.671 50.2258 12.249C49.6818 12.8157 49.0415 13.269 48.3048 13.609C47.5795 13.9377 46.7805 14.102 45.9078 14.102ZM42.7628 7.982C42.7628 8.44667 42.8308 8.9 42.9668 9.342C43.1028 9.77267 43.3012 10.158 43.5618 10.498C43.8338 10.838 44.1682 11.11 44.5648 11.314C44.9615 11.518 45.4148 11.62 45.9248 11.62C46.4575 11.62 46.9222 11.518 47.3188 11.314C47.7155 11.0987 48.0442 10.8153 48.3048 10.464C48.5655 10.1127 48.7582 9.72167 48.8828 9.291C49.0188 8.849 49.0868 8.40133 49.0868 7.948C49.0868 7.48333 49.0188 7.03567 48.8828 6.605C48.7468 6.17433 48.5428 5.789 48.2708 5.449C47.9988 5.09767 47.6645 4.82567 47.2678 4.633C46.8712 4.44033 46.4235 4.344 45.9248 4.344C45.3922 4.344 44.9275 4.446 44.5308 4.65C44.1455 4.854 43.8168 5.13167 43.5448 5.483C43.2842 5.823 43.0858 6.214 42.9498 6.656C42.8252 7.08667 42.7628 7.52867 42.7628 7.982ZM58.8239 14.102C57.9172 14.102 57.0955 13.932 56.3589 13.592C55.6335 13.2407 55.0045 12.776 54.4719 12.198C53.9505 11.6087 53.5482 10.9513 53.2649 10.226C52.9815 9.48933 52.8399 8.73 52.8399 7.948C52.8399 7.14333 52.9872 6.37833 53.2819 5.653C53.5879 4.92767 54.0072 4.28167 54.5399 3.715C55.0839 3.137 55.7242 2.68367 56.4609 2.355C57.1975 2.02633 58.0022 1.862 58.8749 1.862C59.7702 1.862 60.5805 2.03767 61.3059 2.389C62.0425 2.729 62.6715 3.19367 63.1929 3.783C63.7255 4.37233 64.1335 5.03533 64.4169 5.772C64.7002 6.49733 64.8419 7.23967 64.8419 7.999C64.8419 8.80367 64.6945 9.56867 64.3999 10.294C64.1052 11.0193 63.6859 11.671 63.1419 12.249C62.5979 12.8157 61.9575 13.269 61.2209 13.609C60.4955 13.9377 59.6965 14.102 58.8239 14.102ZM55.6789 7.982C55.6789 8.44667 55.7469 8.9 55.8829 9.342C56.0189 9.77267 56.2172 10.158 56.4779 10.498C56.7499 10.838 57.0842 11.11 57.4809 11.314C57.8775 11.518 58.3309 11.62 58.8409 11.62C59.3735 11.62 59.8382 11.518 60.2349 11.314C60.6315 11.0987 60.9602 10.8153 61.2209 10.464C61.4815 10.1127 61.6742 9.72167 61.7989 9.291C61.9349 8.849 62.0029 8.40133 62.0029 7.948C62.0029 7.48333 61.9349 7.03567 61.7989 6.605C61.6629 6.17433 61.4589 5.789 61.1869 5.449C60.9149 5.09767 60.5805 4.82567 60.1839 4.633C59.7872 4.44033 59.3395 4.344 58.8409 4.344C58.3082 4.344 57.8435 4.446 57.4469 4.65C57.0615 4.854 56.7329 5.13167 56.4609 5.483C56.2002 5.823 56.0019 6.214 55.8659 6.656C55.7412 7.08667 55.6789 7.52867 55.6789 7.982ZM66.4529 14V1.93H70.9579C72.2839 1.93 73.3889 2.202 74.2729 2.746C75.1682 3.27867 75.8425 4.004 76.2959 4.922C76.7492 5.82867 76.9759 6.83733 76.9759 7.948C76.9759 9.172 76.7265 10.2373 76.2279 11.144C75.7292 12.0507 75.0265 12.7533 74.1199 13.252C73.2245 13.7507 72.1705 14 70.9579 14H66.4529ZM74.1369 7.948C74.1369 7.24533 74.0122 6.62767 73.7629 6.095C73.5135 5.551 73.1509 5.13167 72.6749 4.837C72.1989 4.531 71.6265 4.378 70.9579 4.378H69.2409V11.552H70.9579C71.6379 11.552 72.2102 11.399 72.6749 11.093C73.1509 10.7757 73.5135 10.345 73.7629 9.801C74.0122 9.24567 74.1369 8.628 74.1369 7.948ZM87.6196 4.378H83.9476V14H81.1596V4.378H77.4706V1.93H87.6196V4.378ZM97.4642 11.552V14H88.9812V1.93H97.3112V4.378H91.7692V6.724H96.5292V8.985H91.7692V11.552H97.4642ZM98.2617 7.863C98.2617 7.12633 98.3977 6.40667 98.6697 5.704C98.9417 4.99 99.3384 4.344 99.8597 3.766C100.381 3.188 101.016 2.729 101.764 2.389C102.512 2.03767 103.362 1.862 104.314 1.862C105.447 1.862 106.427 2.10567 107.255 2.593C108.093 3.08033 108.717 3.715 109.125 4.497L106.983 5.993C106.801 5.56233 106.558 5.228 106.252 4.99C105.957 4.752 105.628 4.58767 105.266 4.497C104.914 4.395 104.574 4.344 104.246 4.344C103.713 4.344 103.248 4.45167 102.852 4.667C102.455 4.871 102.126 5.14867 101.866 5.5C101.605 5.85133 101.412 6.24233 101.288 6.673C101.163 7.10367 101.101 7.53433 101.101 7.965C101.101 8.441 101.174 8.9 101.322 9.342C101.469 9.784 101.679 10.175 101.951 10.515C102.234 10.855 102.574 11.127 102.971 11.331C103.367 11.5237 103.804 11.62 104.28 11.62C104.62 11.62 104.965 11.5633 105.317 11.45C105.668 11.3367 105.991 11.161 106.286 10.923C106.592 10.6737 106.824 10.3507 106.983 9.954L109.261 11.297C109.023 11.8863 108.632 12.3907 108.088 12.81C107.544 13.2293 106.926 13.5523 106.235 13.779C105.555 13.9943 104.88 14.102 104.212 14.102C103.339 14.102 102.534 13.9263 101.798 13.575C101.072 13.2123 100.443 12.7363 99.9107 12.147C99.3894 11.5463 98.9814 10.8777 98.6867 10.141C98.4034 9.393 98.2617 8.63367 98.2617 7.863ZM121.05 1.93V14H118.262V9.053H113.451V14H110.663V1.93H113.451V6.605H118.262V1.93H121.05Z" fill="white"/>
<path d="M25.708 20.48H26.416L29.956 29H29.068L27.964 26.336H24.136L23.044 29H22.144L25.708 20.48ZM27.772 25.676L26.056 21.464L24.316 25.676H27.772ZM37.0094 23.468C36.4654 23.484 35.9854 23.636 35.5694 23.924C35.1614 24.212 34.8734 24.608 34.7054 25.112V29H33.8894V22.748H34.6574V24.248C34.8734 23.808 35.1574 23.452 35.5094 23.18C35.8694 22.908 36.2494 22.756 36.6494 22.724C36.7294 22.716 36.7974 22.712 36.8534 22.712C36.9174 22.712 36.9694 22.716 37.0094 22.724V23.468ZM43.4892 29.12C43.0332 29.12 42.6132 29.036 42.2292 28.868C41.8532 28.692 41.5212 28.452 41.2332 28.148C40.9532 27.844 40.7332 27.496 40.5732 27.104C40.4212 26.712 40.3452 26.296 40.3452 25.856C40.3452 25.264 40.4772 24.724 40.7412 24.236C41.0052 23.748 41.3732 23.36 41.8452 23.072C42.3172 22.784 42.8612 22.64 43.4772 22.64C44.0612 22.64 44.5772 22.776 45.0252 23.048C45.4732 23.312 45.8052 23.672 46.0212 24.128L45.2292 24.38C45.0532 24.06 44.8052 23.812 44.4852 23.636C44.1732 23.452 43.8252 23.36 43.4412 23.36C43.0252 23.36 42.6452 23.468 42.3012 23.684C41.9572 23.9 41.6812 24.196 41.4732 24.572C41.2732 24.948 41.1732 25.376 41.1732 25.856C41.1732 26.328 41.2772 26.756 41.4852 27.14C41.6932 27.524 41.9692 27.832 42.3132 28.064C42.6572 28.288 43.0372 28.4 43.4532 28.4C43.7252 28.4 43.9852 28.352 44.2332 28.256C44.4892 28.16 44.7092 28.032 44.8932 27.872C45.0852 27.704 45.2132 27.524 45.2772 27.332L46.0812 27.572C45.9692 27.868 45.7812 28.136 45.5172 28.376C45.2612 28.608 44.9572 28.792 44.6052 28.928C44.2612 29.056 43.8892 29.12 43.4892 29.12ZM55.4991 29H54.6831V25.508C54.6831 24.804 54.5591 24.276 54.3111 23.924C54.0631 23.564 53.7071 23.384 53.2431 23.384C52.9391 23.384 52.6351 23.464 52.3311 23.624C52.0351 23.776 51.7711 23.988 51.5391 24.26C51.3151 24.524 51.1551 24.828 51.0591 25.172V29H50.2431V20.24H51.0591V24.164C51.3071 23.7 51.6511 23.332 52.0911 23.06C52.5391 22.78 53.0151 22.64 53.5191 22.64C53.8791 22.64 54.1831 22.704 54.4311 22.832C54.6871 22.96 54.8911 23.148 55.0431 23.396C55.2031 23.636 55.3191 23.92 55.3911 24.248C55.4631 24.568 55.4991 24.932 55.4991 25.34V29ZM60.1192 29V22.748H60.9352V29H60.1192ZM60.1192 21.44V20.24H60.9352V21.44H60.1192ZM68.6125 28.7C68.5485 28.724 68.4485 28.768 68.3125 28.832C68.1765 28.896 68.0125 28.952 67.8205 29C67.6285 29.048 67.4205 29.072 67.1965 29.072C66.9645 29.072 66.7445 29.028 66.5365 28.94C66.3365 28.852 66.1765 28.72 66.0565 28.544C65.9365 28.36 65.8765 28.136 65.8765 27.872V23.396H65.0125V22.748H65.8765V20.636H66.6925V22.748H68.1325V23.396H66.6925V27.644C66.7085 27.868 66.7885 28.036 66.9325 28.148C67.0845 28.26 67.2565 28.316 67.4485 28.316C67.6725 28.316 67.8765 28.28 68.0605 28.208C68.2445 28.128 68.3565 28.072 68.3965 28.04L68.6125 28.7ZM75.1066 29.12C74.6586 29.12 74.2426 29.036 73.8586 28.868C73.4746 28.692 73.1426 28.456 72.8626 28.16C72.5826 27.856 72.3626 27.508 72.2026 27.116C72.0506 26.724 71.9746 26.304 71.9746 25.856C71.9746 25.272 72.1066 24.736 72.3706 24.248C72.6426 23.76 73.0146 23.372 73.4866 23.084C73.9586 22.788 74.4946 22.64 75.0946 22.64C75.7106 22.64 76.2466 22.788 76.7026 23.084C77.1666 23.38 77.5306 23.772 77.7946 24.26C78.0586 24.74 78.1906 25.268 78.1906 25.844C78.1906 25.908 78.1906 25.972 78.1906 26.036C78.1906 26.092 78.1866 26.136 78.1786 26.168H72.8266C72.8666 26.616 72.9906 27.016 73.1986 27.368C73.4146 27.712 73.6906 27.988 74.0266 28.196C74.3706 28.396 74.7426 28.496 75.1426 28.496C75.5506 28.496 75.9346 28.392 76.2946 28.184C76.6626 27.976 76.9186 27.704 77.0626 27.368L77.7706 27.56C77.6426 27.856 77.4466 28.124 77.1826 28.364C76.9186 28.604 76.6066 28.792 76.2466 28.928C75.8946 29.056 75.5146 29.12 75.1066 29.12ZM72.8026 25.58H77.4226C77.3906 25.124 77.2666 24.724 77.0506 24.38C76.8426 24.036 76.5666 23.768 76.2226 23.576C75.8866 23.376 75.5146 23.276 75.1066 23.276C74.6986 23.276 74.3266 23.376 73.9906 23.576C73.6546 23.768 73.3786 24.04 73.1626 24.392C72.9546 24.736 72.8346 25.132 72.8026 25.58ZM85.0415 29.12C84.5855 29.12 84.1655 29.036 83.7815 28.868C83.4055 28.692 83.0735 28.452 82.7855 28.148C82.5055 27.844 82.2855 27.496 82.1255 27.104C81.9735 26.712 81.8975 26.296 81.8975 25.856C81.8975 25.264 82.0295 24.724 82.2935 24.236C82.5575 23.748 82.9255 23.36 83.3975 23.072C83.8695 22.784 84.4135 22.64 85.0295 22.64C85.6135 22.64 86.1295 22.776 86.5775 23.048C87.0255 23.312 87.3575 23.672 87.5735 24.128L86.7815 24.38C86.6055 24.06 86.3575 23.812 86.0375 23.636C85.7255 23.452 85.3775 23.36 84.9935 23.36C84.5775 23.36 84.1975 23.468 83.8535 23.684C83.5095 23.9 83.2335 24.196 83.0255 24.572C82.8255 24.948 82.7255 25.376 82.7255 25.856C82.7255 26.328 82.8295 26.756 83.0375 27.14C83.2455 27.524 83.5215 27.832 83.8655 28.064C84.2095 28.288 84.5895 28.4 85.0055 28.4C85.2775 28.4 85.5375 28.352 85.7855 28.256C86.0415 28.16 86.2615 28.032 86.4455 27.872C86.6375 27.704 86.7655 27.524 86.8295 27.332L87.6335 27.572C87.5215 27.868 87.3335 28.136 87.0695 28.376C86.8135 28.608 86.5095 28.792 86.1575 28.928C85.8135 29.056 85.4415 29.12 85.0415 29.12ZM94.7955 28.7C94.7315 28.724 94.6315 28.768 94.4955 28.832C94.3595 28.896 94.1955 28.952 94.0035 29C93.8115 29.048 93.6035 29.072 93.3795 29.072C93.1475 29.072 92.9275 29.028 92.7195 28.94C92.5195 28.852 92.3595 28.72 92.2395 28.544C92.1195 28.36 92.0595 28.136 92.0595 27.872V23.396H91.1955V22.748H92.0595V20.636H92.8755V22.748H94.3155V23.396H92.8755V27.644C92.8915 27.868 92.9715 28.036 93.1155 28.148C93.2675 28.26 93.4395 28.316 93.6315 28.316C93.8555 28.316 94.0595 28.28 94.2435 28.208C94.4275 28.128 94.5395 28.072 94.5795 28.04L94.7955 28.7ZM98.635 26.42V22.748H99.451V26.276C99.451 26.988 99.571 27.52 99.811 27.872C100.059 28.224 100.423 28.4 100.903 28.4C101.223 28.4 101.531 28.332 101.827 28.196C102.131 28.052 102.399 27.852 102.631 27.596C102.863 27.332 103.039 27.028 103.159 26.684V22.748H103.975V28.016C103.975 28.128 103.999 28.212 104.047 28.268C104.095 28.316 104.167 28.344 104.263 28.352V29C104.167 29.008 104.091 29.012 104.035 29.012C103.979 29.02 103.927 29.024 103.879 29.024C103.719 29.008 103.579 28.944 103.459 28.832C103.347 28.72 103.287 28.584 103.279 28.424L103.255 27.584C102.983 28.064 102.611 28.44 102.139 28.712C101.675 28.984 101.171 29.12 100.627 29.12C99.971 29.12 99.475 28.892 99.139 28.436C98.803 27.98 98.635 27.308 98.635 26.42ZM111.82 23.468C111.276 23.484 110.796 23.636 110.38 23.924C109.972 24.212 109.684 24.608 109.516 25.112V29H108.7V22.748H109.468V24.248C109.684 23.808 109.968 23.452 110.32 23.18C110.68 22.908 111.06 22.756 111.46 22.724C111.54 22.716 111.608 22.712 111.664 22.712C111.728 22.712 111.78 22.716 111.82 22.724V23.468ZM118.288 29.12C117.84 29.12 117.424 29.036 117.04 28.868C116.656 28.692 116.324 28.456 116.044 28.16C115.764 27.856 115.544 27.508 115.384 27.116C115.232 26.724 115.156 26.304 115.156 25.856C115.156 25.272 115.288 24.736 115.552 24.248C115.824 23.76 116.196 23.372 116.668 23.084C117.14 22.788 117.676 22.64 118.276 22.64C118.892 22.64 119.428 22.788 119.884 23.084C120.348 23.38 120.712 23.772 120.976 24.26C121.24 24.74 121.372 25.268 121.372 25.844C121.372 25.908 121.372 25.972 121.372 26.036C121.372 26.092 121.368 26.136 121.36 26.168H116.008C116.048 26.616 116.172 27.016 116.38 27.368C116.596 27.712 116.872 27.988 117.208 28.196C117.552 28.396 117.924 28.496 118.324 28.496C118.732 28.496 119.116 28.392 119.476 28.184C119.844 27.976 120.1 27.704 120.244 27.368L120.952 27.56C120.824 27.856 120.628 28.124 120.364 28.364C120.1 28.604 119.788 28.792 119.428 28.928C119.076 29.056 118.696 29.12 118.288 29.12ZM115.984 25.58H120.604C120.572 25.124 120.448 24.724 120.232 24.38C120.024 24.036 119.748 23.768 119.404 23.576C119.068 23.376 118.696 23.276 118.288 23.276C117.88 23.276 117.508 23.376 117.172 23.576C116.836 23.768 116.56 24.04 116.344 24.392C116.136 24.736 116.016 25.132 115.984 25.58Z" fill="white" fill-opacity="0.45"/>
</g>
</svg>
