<svg width="122" height="30" viewBox="0 0 122 30" fill="none" xmlns="http://www.w3.org/2000/svg">
<path fill-rule="evenodd" clip-rule="evenodd" d="M10 0H0V10C0 12.7614 2.23858 15 5 15H15V5C15 2.23858 12.7614 0 10 0ZM10 2H2V10C2 11.6569 3.34315 13 5 13H13V5C13 3.34315 11.6569 2 10 2Z" fill="#AE5D00"/>
<path d="M27.389 1.964H29.565L30.942 5.959L32.336 1.964H34.495L32.421 7.455L33.951 11.297L37.368 1.93H39.918L35.09 14H33.067L30.942 8.934L28.834 14H26.811L22 1.93H24.516L27.95 11.297L29.446 7.455L27.389 1.964ZM45.8406 14.085C44.9566 14.085 44.152 13.915 43.4266 13.575C42.7126 13.235 42.095 12.776 41.5736 12.198C41.0636 11.6087 40.667 10.9513 40.3836 10.226C40.1003 9.48933 39.9586 8.73567 39.9586 7.965C39.9586 7.16033 40.106 6.39533 40.4006 5.67C40.7066 4.93333 41.1203 4.28167 41.6416 3.715C42.1743 3.137 42.7976 2.68367 43.5116 2.355C44.237 2.015 45.0303 1.845 45.8916 1.845C46.7643 1.845 47.5576 2.02067 48.2716 2.372C48.997 2.72333 49.6146 3.19367 50.1246 3.783C50.6346 4.37233 51.0313 5.02967 51.3146 5.755C51.598 6.48033 51.7396 7.22833 51.7396 7.999C51.7396 8.79233 51.5923 9.55733 51.2976 10.294C51.003 11.0193 50.5893 11.671 50.0566 12.249C49.5353 12.8157 48.912 13.2633 48.1866 13.592C47.4726 13.9207 46.6906 14.085 45.8406 14.085ZM42.3386 7.965C42.3386 8.48633 42.418 8.99067 42.5766 9.478C42.7353 9.96533 42.962 10.4017 43.2566 10.787C43.5626 11.161 43.931 11.4613 44.3616 11.688C44.8036 11.9033 45.3023 12.011 45.8576 12.011C46.4243 12.011 46.9286 11.8977 47.3706 11.671C47.8126 11.433 48.181 11.1213 48.4756 10.736C48.7703 10.3393 48.9913 9.903 49.1386 9.427C49.2973 8.93967 49.3766 8.45233 49.3766 7.965C49.3766 7.44367 49.2916 6.945 49.1216 6.469C48.963 5.98167 48.7306 5.551 48.4246 5.177C48.13 4.79167 47.7616 4.49133 47.3196 4.276C46.889 4.04933 46.4016 3.936 45.8576 3.936C45.2796 3.936 44.7696 4.055 44.3276 4.293C43.897 4.51967 43.5343 4.82567 43.2396 5.211C42.945 5.59633 42.7183 6.027 42.5596 6.503C42.4123 6.979 42.3386 7.46633 42.3386 7.965ZM58.6903 14.085C57.8063 14.085 57.0016 13.915 56.2763 13.575C55.5623 13.235 54.9446 12.776 54.4233 12.198C53.9133 11.6087 53.5166 10.9513 53.2333 10.226C52.9499 9.48933 52.8083 8.73567 52.8083 7.965C52.8083 7.16033 52.9556 6.39533 53.2503 5.67C53.5563 4.93333 53.9699 4.28167 54.4913 3.715C55.0239 3.137 55.6473 2.68367 56.3613 2.355C57.0866 2.015 57.8799 1.845 58.7413 1.845C59.6139 1.845 60.4073 2.02067 61.1213 2.372C61.8466 2.72333 62.4643 3.19367 62.9743 3.783C63.4843 4.37233 63.8809 5.02967 64.1643 5.755C64.4476 6.48033 64.5893 7.22833 64.5893 7.999C64.5893 8.79233 64.4419 9.55733 64.1473 10.294C63.8526 11.0193 63.4389 11.671 62.9062 12.249C62.3849 12.8157 61.7616 13.2633 61.0363 13.592C60.3223 13.9207 59.5403 14.085 58.6903 14.085ZM55.1883 7.965C55.1883 8.48633 55.2676 8.99067 55.4263 9.478C55.5849 9.96533 55.8116 10.4017 56.1063 10.787C56.4123 11.161 56.7806 11.4613 57.2113 11.688C57.6533 11.9033 58.1519 12.011 58.7073 12.011C59.2739 12.011 59.7783 11.8977 60.2203 11.671C60.6623 11.433 61.0306 11.1213 61.3253 10.736C61.6199 10.3393 61.8409 9.903 61.9883 9.427C62.1469 8.93967 62.2263 8.45233 62.2263 7.965C62.2263 7.44367 62.1413 6.945 61.9713 6.469C61.8126 5.98167 61.5803 5.551 61.2743 5.177C60.9796 4.79167 60.6113 4.49133 60.1693 4.276C59.7386 4.04933 59.2513 3.936 58.7073 3.936C58.1293 3.936 57.6193 4.055 57.1773 4.293C56.7466 4.51967 56.3839 4.82567 56.0893 5.211C55.7946 5.59633 55.5679 6.027 55.4093 6.503C55.2619 6.979 55.1883 7.46633 55.1883 7.965ZM66.3889 14V1.93H70.7749C72.0895 1.93 73.1889 2.202 74.0729 2.746C74.9569 3.27867 75.6199 4.004 76.0619 4.922C76.5039 5.82867 76.7249 6.83733 76.7249 7.948C76.7249 9.172 76.4812 10.2373 75.9939 11.144C75.5065 12.0507 74.8152 12.7533 73.9199 13.252C73.0359 13.7507 71.9875 14 70.7749 14H66.3889ZM74.3619 7.948C74.3619 7.166 74.2202 6.48033 73.9369 5.891C73.6535 5.29033 73.2455 4.82567 72.7129 4.497C72.1802 4.157 71.5342 3.987 70.7749 3.987H68.7349V11.943H70.7749C71.5455 11.943 72.1972 11.773 72.7299 11.433C73.2625 11.0817 73.6649 10.6057 73.9369 10.005C74.2202 9.393 74.3619 8.70733 74.3619 7.948ZM87.3524 3.987H83.4934V14H81.1644V3.987H77.3054V1.93H87.3524V3.987ZM97.2318 11.943V14H88.8508V1.93H97.0788V3.987H91.1968V6.894H96.2798V8.798H91.1968V11.943H97.2318ZM98.1139 7.88C98.1139 7.14333 98.2442 6.42367 98.5049 5.721C98.7769 5.007 99.1679 4.361 99.6779 3.783C100.188 3.19367 100.811 2.729 101.548 2.389C102.285 2.03767 103.123 1.862 104.064 1.862C105.175 1.862 106.132 2.10567 106.937 2.593C107.753 3.08033 108.359 3.715 108.756 4.497L106.954 5.738C106.75 5.28467 106.484 4.92767 106.155 4.667C105.826 4.395 105.475 4.208 105.101 4.106C104.727 3.99267 104.359 3.936 103.996 3.936C103.407 3.936 102.891 4.055 102.449 4.293C102.018 4.531 101.656 4.84267 101.361 5.228C101.066 5.61333 100.845 6.044 100.698 6.52C100.562 6.996 100.494 7.472 100.494 7.948C100.494 8.48067 100.579 8.99633 100.749 9.495C100.919 9.98233 101.157 10.4187 101.463 10.804C101.78 11.178 102.154 11.4783 102.585 11.705C103.027 11.9203 103.509 12.028 104.03 12.028C104.404 12.028 104.784 11.9657 105.169 11.841C105.554 11.7163 105.911 11.518 106.24 11.246C106.569 10.974 106.824 10.6227 107.005 10.192L108.926 11.297C108.688 11.8977 108.297 12.4077 107.753 12.827C107.22 13.2463 106.62 13.5637 105.951 13.779C105.282 13.9943 104.619 14.102 103.962 14.102C103.101 14.102 102.313 13.9263 101.599 13.575C100.885 13.2123 100.267 12.7363 99.7459 12.147C99.2359 11.5463 98.8336 10.8777 98.5389 10.141C98.2556 9.393 98.1139 8.63933 98.1139 7.88ZM120.648 1.93V14H118.319V8.849H112.845V14H110.499V1.93H112.845V6.809H118.319V1.93H120.648Z" fill="#2D2A26"/>
<path opacity="0.75" d="M25.708 20.48H26.416L29.956 29H29.068L27.964 26.336H24.136L23.044 29H22.144L25.708 20.48ZM27.772 25.676L26.056 21.464L24.316 25.676H27.772ZM37.0094 23.468C36.4654 23.484 35.9854 23.636 35.5694 23.924C35.1614 24.212 34.8734 24.608 34.7054 25.112V29H33.8894V22.748H34.6574V24.248C34.8734 23.808 35.1574 23.452 35.5094 23.18C35.8694 22.908 36.2494 22.756 36.6494 22.724C36.7294 22.716 36.7974 22.712 36.8534 22.712C36.9174 22.712 36.9694 22.716 37.0094 22.724V23.468ZM43.4892 29.12C43.0332 29.12 42.6132 29.036 42.2292 28.868C41.8532 28.692 41.5212 28.452 41.2332 28.148C40.9532 27.844 40.7332 27.496 40.5732 27.104C40.4212 26.712 40.3452 26.296 40.3452 25.856C40.3452 25.264 40.4772 24.724 40.7412 24.236C41.0052 23.748 41.3732 23.36 41.8452 23.072C42.3172 22.784 42.8612 22.64 43.4772 22.64C44.0612 22.64 44.5772 22.776 45.0252 23.048C45.4732 23.312 45.8052 23.672 46.0212 24.128L45.2292 24.38C45.0532 24.06 44.8052 23.812 44.4852 23.636C44.1732 23.452 43.8252 23.36 43.4412 23.36C43.0252 23.36 42.6452 23.468 42.3012 23.684C41.9572 23.9 41.6812 24.196 41.4732 24.572C41.2732 24.948 41.1732 25.376 41.1732 25.856C41.1732 26.328 41.2772 26.756 41.4852 27.14C41.6932 27.524 41.9692 27.832 42.3132 28.064C42.6572 28.288 43.0372 28.4 43.4532 28.4C43.7252 28.4 43.9852 28.352 44.2332 28.256C44.4892 28.16 44.7092 28.032 44.8932 27.872C45.0852 27.704 45.2132 27.524 45.2772 27.332L46.0812 27.572C45.9692 27.868 45.7812 28.136 45.5172 28.376C45.2612 28.608 44.9572 28.792 44.6052 28.928C44.2612 29.056 43.8892 29.12 43.4892 29.12ZM55.4991 29H54.6831V25.508C54.6831 24.804 54.5591 24.276 54.3111 23.924C54.0631 23.564 53.7071 23.384 53.2431 23.384C52.9391 23.384 52.6351 23.464 52.3311 23.624C52.0351 23.776 51.7711 23.988 51.5391 24.26C51.3151 24.524 51.1551 24.828 51.0591 25.172V29H50.2431V20.24H51.0591V24.164C51.3071 23.7 51.6511 23.332 52.0911 23.06C52.5391 22.78 53.0151 22.64 53.5191 22.64C53.8791 22.64 54.1831 22.704 54.4311 22.832C54.6871 22.96 54.8911 23.148 55.0431 23.396C55.2031 23.636 55.3191 23.92 55.3911 24.248C55.4631 24.568 55.4991 24.932 55.4991 25.34V29ZM60.1192 29V22.748H60.9352V29H60.1192ZM60.1192 21.44V20.24H60.9352V21.44H60.1192ZM68.6125 28.7C68.5485 28.724 68.4485 28.768 68.3125 28.832C68.1765 28.896 68.0125 28.952 67.8205 29C67.6285 29.048 67.4205 29.072 67.1965 29.072C66.9645 29.072 66.7445 29.028 66.5365 28.94C66.3365 28.852 66.1765 28.72 66.0565 28.544C65.9365 28.36 65.8765 28.136 65.8765 27.872V23.396H65.0125V22.748H65.8765V20.636H66.6925V22.748H68.1325V23.396H66.6925V27.644C66.7085 27.868 66.7885 28.036 66.9325 28.148C67.0845 28.26 67.2565 28.316 67.4485 28.316C67.6725 28.316 67.8765 28.28 68.0605 28.208C68.2445 28.128 68.3565 28.072 68.3965 28.04L68.6125 28.7ZM75.1066 29.12C74.6586 29.12 74.2426 29.036 73.8586 28.868C73.4746 28.692 73.1426 28.456 72.8626 28.16C72.5826 27.856 72.3626 27.508 72.2026 27.116C72.0506 26.724 71.9746 26.304 71.9746 25.856C71.9746 25.272 72.1066 24.736 72.3706 24.248C72.6426 23.76 73.0146 23.372 73.4866 23.084C73.9586 22.788 74.4946 22.64 75.0946 22.64C75.7106 22.64 76.2466 22.788 76.7026 23.084C77.1666 23.38 77.5306 23.772 77.7946 24.26C78.0586 24.74 78.1906 25.268 78.1906 25.844C78.1906 25.908 78.1906 25.972 78.1906 26.036C78.1906 26.092 78.1866 26.136 78.1786 26.168H72.8266C72.8666 26.616 72.9906 27.016 73.1986 27.368C73.4146 27.712 73.6906 27.988 74.0266 28.196C74.3706 28.396 74.7426 28.496 75.1426 28.496C75.5506 28.496 75.9346 28.392 76.2946 28.184C76.6626 27.976 76.9186 27.704 77.0626 27.368L77.7706 27.56C77.6426 27.856 77.4466 28.124 77.1826 28.364C76.9186 28.604 76.6066 28.792 76.2466 28.928C75.8946 29.056 75.5146 29.12 75.1066 29.12ZM72.8026 25.58H77.4226C77.3906 25.124 77.2666 24.724 77.0506 24.38C76.8426 24.036 76.5666 23.768 76.2226 23.576C75.8866 23.376 75.5146 23.276 75.1066 23.276C74.6986 23.276 74.3266 23.376 73.9906 23.576C73.6546 23.768 73.3786 24.04 73.1626 24.392C72.9546 24.736 72.8346 25.132 72.8026 25.58ZM85.0415 29.12C84.5855 29.12 84.1655 29.036 83.7815 28.868C83.4055 28.692 83.0735 28.452 82.7855 28.148C82.5055 27.844 82.2855 27.496 82.1255 27.104C81.9735 26.712 81.8975 26.296 81.8975 25.856C81.8975 25.264 82.0295 24.724 82.2935 24.236C82.5575 23.748 82.9255 23.36 83.3975 23.072C83.8695 22.784 84.4135 22.64 85.0295 22.64C85.6135 22.64 86.1295 22.776 86.5775 23.048C87.0255 23.312 87.3575 23.672 87.5735 24.128L86.7815 24.38C86.6055 24.06 86.3575 23.812 86.0375 23.636C85.7255 23.452 85.3775 23.36 84.9935 23.36C84.5775 23.36 84.1975 23.468 83.8535 23.684C83.5095 23.9 83.2335 24.196 83.0255 24.572C82.8255 24.948 82.7255 25.376 82.7255 25.856C82.7255 26.328 82.8295 26.756 83.0375 27.14C83.2455 27.524 83.5215 27.832 83.8655 28.064C84.2095 28.288 84.5895 28.4 85.0055 28.4C85.2775 28.4 85.5375 28.352 85.7855 28.256C86.0415 28.16 86.2615 28.032 86.4455 27.872C86.6375 27.704 86.7655 27.524 86.8295 27.332L87.6335 27.572C87.5215 27.868 87.3335 28.136 87.0695 28.376C86.8135 28.608 86.5095 28.792 86.1575 28.928C85.8135 29.056 85.4415 29.12 85.0415 29.12ZM94.7955 28.7C94.7315 28.724 94.6315 28.768 94.4955 28.832C94.3595 28.896 94.1955 28.952 94.0035 29C93.8115 29.048 93.6035 29.072 93.3795 29.072C93.1475 29.072 92.9275 29.028 92.7195 28.94C92.5195 28.852 92.3595 28.72 92.2395 28.544C92.1195 28.36 92.0595 28.136 92.0595 27.872V23.396H91.1955V22.748H92.0595V20.636H92.8755V22.748H94.3155V23.396H92.8755V27.644C92.8915 27.868 92.9715 28.036 93.1155 28.148C93.2675 28.26 93.4395 28.316 93.6315 28.316C93.8555 28.316 94.0595 28.28 94.2435 28.208C94.4275 28.128 94.5395 28.072 94.5795 28.04L94.7955 28.7ZM98.635 26.42V22.748H99.451V26.276C99.451 26.988 99.571 27.52 99.811 27.872C100.059 28.224 100.423 28.4 100.903 28.4C101.223 28.4 101.531 28.332 101.827 28.196C102.131 28.052 102.399 27.852 102.631 27.596C102.863 27.332 103.039 27.028 103.159 26.684V22.748H103.975V28.016C103.975 28.128 103.999 28.212 104.047 28.268C104.095 28.316 104.167 28.344 104.263 28.352V29C104.167 29.008 104.091 29.012 104.035 29.012C103.979 29.02 103.927 29.024 103.879 29.024C103.719 29.008 103.579 28.944 103.459 28.832C103.347 28.72 103.287 28.584 103.279 28.424L103.255 27.584C102.983 28.064 102.611 28.44 102.139 28.712C101.675 28.984 101.171 29.12 100.627 29.12C99.971 29.12 99.475 28.892 99.139 28.436C98.803 27.98 98.635 27.308 98.635 26.42ZM111.82 23.468C111.276 23.484 110.796 23.636 110.38 23.924C109.972 24.212 109.684 24.608 109.516 25.112V29H108.7V22.748H109.468V24.248C109.684 23.808 109.968 23.452 110.32 23.18C110.68 22.908 111.06 22.756 111.46 22.724C111.54 22.716 111.608 22.712 111.664 22.712C111.728 22.712 111.78 22.716 111.82 22.724V23.468ZM118.288 29.12C117.84 29.12 117.424 29.036 117.04 28.868C116.656 28.692 116.324 28.456 116.044 28.16C115.764 27.856 115.544 27.508 115.384 27.116C115.232 26.724 115.156 26.304 115.156 25.856C115.156 25.272 115.288 24.736 115.552 24.248C115.824 23.76 116.196 23.372 116.668 23.084C117.14 22.788 117.676 22.64 118.276 22.64C118.892 22.64 119.428 22.788 119.884 23.084C120.348 23.38 120.712 23.772 120.976 24.26C121.24 24.74 121.372 25.268 121.372 25.844C121.372 25.908 121.372 25.972 121.372 26.036C121.372 26.092 121.368 26.136 121.36 26.168H116.008C116.048 26.616 116.172 27.016 116.38 27.368C116.596 27.712 116.872 27.988 117.208 28.196C117.552 28.396 117.924 28.496 118.324 28.496C118.732 28.496 119.116 28.392 119.476 28.184C119.844 27.976 120.1 27.704 120.244 27.368L120.952 27.56C120.824 27.856 120.628 28.124 120.364 28.364C120.1 28.604 119.788 28.792 119.428 28.928C119.076 29.056 118.696 29.12 118.288 29.12ZM115.984 25.58H120.604C120.572 25.124 120.448 24.724 120.232 24.38C120.024 24.036 119.748 23.768 119.404 23.576C119.068 23.376 118.696 23.276 118.288 23.276C117.88 23.276 117.508 23.376 117.172 23.576C116.836 23.768 116.56 24.04 116.344 24.392C116.136 24.736 116.016 25.132 115.984 25.58Z" fill="#6F7A8B"/>
</svg>
