<svg width="12" height="16" viewBox="0 0 12 16" fill="none" xmlns="http://www.w3.org/2000/svg">
<g clip-path="url(#clip0_347_177)">
<path d="M5.99984 2.13333C3.8769 2.13333 2.14977 3.84726 2.14977 5.95397C2.14977 6.13264 2.23606 7.15423 3.93967 9.72725C4.62591 10.7637 5.39687 11.7833 6.05371 12.6171C6.5054 12.0381 7.01059 11.3621 7.5059 10.6449C9.78414 7.34601 9.84991 6.08671 9.84991 5.95397C9.84991 3.84726 8.12278 2.13333 5.99984 2.13333ZM5.99984 0C9.31346 0 11.9997 2.66568 11.9997 5.95397C11.9997 9.20593 6.1008 16 6.00098 16C5.99987 16 5.99949 15.9992 5.99984 15.9975C6.03139 15.8434 0 9.24226 0 5.95397C0 2.66568 2.68622 0 5.99984 0Z" fill="#AE5D00"/>
</g>
<defs>
<clipPath id="clip0_347_177">
<rect width="12" height="16" fill="white"/>
</clipPath>
</defs>
</svg>
