<svg width="16" height="13" viewBox="0 0 16 13" fill="none" xmlns="http://www.w3.org/2000/svg">
<path d="M14.3554 3.24109C14.3655 3.38322 14.3655 3.52538 14.3655 3.6675C14.3655 8.00252 11.066 12.9975 5.03555 12.9975C3.17767 12.9975 1.45179 12.4594 0 11.5254C0.26397 11.5558 0.517752 11.566 0.791878 11.566C2.32485 11.566 3.73605 11.0482 4.86296 10.165C3.42133 10.1345 2.2132 9.19037 1.79694 7.89086C2.00001 7.9213 2.20304 7.94161 2.41626 7.94161C2.71067 7.94161 3.00511 7.90099 3.2792 7.82995C1.77666 7.52536 0.649721 6.20557 0.649721 4.61166V4.57107C1.08625 4.81472 1.59391 4.96701 2.13195 4.98729C1.24869 4.39844 0.670034 3.39337 0.670034 2.25631C0.670034 1.64718 0.832441 1.0888 1.11672 0.601489C2.73095 2.59134 5.15736 3.89081 7.87816 4.03297C7.82741 3.78931 7.79694 3.53553 7.79694 3.28172C7.79694 1.47459 9.25888 0.0025177 11.0761 0.0025177C12.0203 0.0025177 12.8731 0.398457 13.4721 1.03805C14.2132 0.895927 14.9238 0.621801 15.5533 0.246175C15.3096 1.00762 14.7919 1.64721 14.1117 2.05328C14.7716 1.98224 15.4112 1.79946 16 1.54568C15.5534 2.1954 14.995 2.77406 14.3554 3.24109Z" fill="white" fill-opacity="0.5"/>
</svg>
