<svg width="16" height="19" viewBox="0 0 16 19" fill="none" xmlns="http://www.w3.org/2000/svg">
<path d="M14.3554 6.67192C14.3655 6.81405 14.3655 6.95621 14.3655 7.09833C14.3655 11.4333 11.066 16.4283 5.03555 16.4283C3.17767 16.4283 1.45179 15.8902 0 14.9562C0.26397 14.9867 0.517752 14.9968 0.791878 14.9968C2.32485 14.9968 3.73605 14.4791 4.86296 13.5958C3.42133 13.5654 2.2132 12.6212 1.79694 11.3217C2.00001 11.3521 2.20304 11.3724 2.41626 11.3724C2.71067 11.3724 3.00511 11.3318 3.2792 11.2608C1.77666 10.9562 0.649721 9.63641 0.649721 8.04249V8.0019C1.08625 8.24556 1.59391 8.39784 2.13195 8.41812C1.24869 7.82927 0.670034 6.82421 0.670034 5.68714C0.670034 5.07801 0.832441 4.51964 1.11672 4.03232C2.73095 6.02217 5.15736 7.32165 7.87816 7.4638C7.82741 7.22015 7.79694 6.96636 7.79694 6.71255C7.79694 4.90542 9.25888 3.43335 11.0761 3.43335C12.0203 3.43335 12.8731 3.82929 13.4721 4.46888C14.2132 4.32676 14.9238 4.05263 15.5533 3.67701C15.3096 4.43845 14.7919 5.07804 14.1117 5.48411C14.7716 5.41308 15.4112 5.23029 16 4.97651C15.5534 5.62623 14.995 6.20489 14.3554 6.67192Z" fill="#6F7A8B" fill-opacity="0.75"/>
</svg>
