<svg width="20" height="11" viewBox="0 0 20 11" fill="none" xmlns="http://www.w3.org/2000/svg">
<path d="M19.067 0.745937C19.1975 0.31625 19.067 0 18.4391 0H16.3616C15.8326 0 15.5892 0.271562 15.4587 0.574062C15.4587 0.574062 14.4005 3.08687 12.905 4.71625C12.4218 5.18719 12.1996 5.33844 11.9351 5.33844C11.8046 5.33844 11.6035 5.18719 11.6035 4.7575V0.745937C11.6035 0.230312 11.4554 0 11.018 0H7.75184C7.42029 0 7.22277 0.240625 7.22277 0.464063C7.22277 0.952188 7.97053 1.06563 8.04813 2.44062V5.42438C8.04813 6.0775 7.9282 6.19781 7.66366 6.19781C6.95823 6.19781 5.24403 3.67469 4.22821 0.787188C4.02363 0.226875 3.82259 0 3.28998 0H1.21249C0.619923 0 0.5 0.271562 0.5 0.574062C0.5 1.11031 1.20543 3.77438 3.78379 7.29438C5.50151 9.69719 7.92115 11 10.1221 11C11.4448 11 11.607 10.7113 11.607 10.2128C11.607 7.91656 11.4871 7.7 12.1502 7.7C12.4571 7.7 12.9862 7.85125 14.2207 9.00969C15.6315 10.3847 15.8643 11 16.6544 11H18.7319C19.3245 11 19.6243 10.7113 19.4514 10.1406C19.0564 8.94094 16.3863 6.47281 16.2664 6.30781C15.9595 5.92281 16.0477 5.75094 16.2664 5.40719C16.2699 5.40375 18.806 1.925 19.067 0.745937Z" fill="white"/>
</svg>
