<svg width="20" height="23" viewBox="0 0 20 23" fill="none" xmlns="http://www.w3.org/2000/svg">
<path d="M18.567 6.74594C18.6975 6.31625 18.567 6 17.9391 6H15.8616C15.3326 6 15.0892 6.27156 14.9587 6.57406C14.9587 6.57406 13.9005 9.08687 12.405 10.7162C11.9218 11.1872 11.6996 11.3384 11.4351 11.3384C11.3046 11.3384 11.1035 11.1872 11.1035 10.7575V6.74594C11.1035 6.23031 10.9554 6 10.518 6H7.25184C6.92029 6 6.72277 6.24063 6.72277 6.46406C6.72277 6.95219 7.47053 7.06563 7.54813 8.44062V11.4244C7.54813 12.0775 7.4282 12.1978 7.16366 12.1978C6.45823 12.1978 4.74403 9.67469 3.72821 6.78719C3.52363 6.22688 3.32259 6 2.78998 6H0.712487C0.119923 6 0 6.27156 0 6.57406C0 7.11031 0.705432 9.77438 3.28379 13.2944C5.00151 15.6972 7.42115 17 9.6221 17C10.9448 17 11.107 16.7113 11.107 16.2128C11.107 13.9166 10.9871 13.7 11.6502 13.7C11.9571 13.7 12.4862 13.8513 13.7207 15.0097C15.1315 16.3847 15.3643 17 16.1544 17H18.2319C18.8245 17 19.1243 16.7113 18.9514 16.1406C18.5564 14.9409 15.8863 12.4728 15.7664 12.3078C15.4595 11.9228 15.5477 11.7509 15.7664 11.4072C15.7699 11.4038 18.306 7.925 18.567 6.74594Z" fill="#6F7A8B" fill-opacity="0.75"/>
</svg>
